%TF.GenerationSoftware,KiCad,Pcbnew,5.1.7+dfsg1-1*%
%TF.CreationDate,2020-11-03T09:50:27-05:00*%
%TF.ProjectId,cap_pcb,6361705f-7063-4622-9e6b-696361645f70,rev?*%
%TF.SameCoordinates,Original*%
%TF.FileFunction,Legend,Top*%
%TF.FilePolarity,Positive*%
%FSLAX46Y46*%
G04 Gerber Fmt 4.6, Leading zero omitted, Abs format (unit mm)*
G04 Created by KiCad (PCBNEW 5.1.7+dfsg1-1) date 2020-11-03 09:50:27*
%MOMM*%
%LPD*%
G01*
G04 APERTURE LIST*
%ADD10C,0.120000*%
%ADD11C,0.100000*%
%ADD12C,0.150000*%
G04 APERTURE END LIST*
D10*
%TO.C,SW1*%
X162676000Y-108030000D02*
X173686000Y-108030000D01*
X163496000Y-100220000D02*
X163496000Y-102870000D01*
X173816000Y-105520000D02*
X173816000Y-100220000D01*
X163616000Y-97710000D02*
X173696000Y-97710000D01*
%TO.C,R14*%
X225044000Y-95420000D02*
X225044000Y-101610000D01*
X225044000Y-117940000D02*
X225044000Y-111750000D01*
X223124000Y-101610000D02*
X223124000Y-111750000D01*
X226964000Y-101610000D02*
X223124000Y-101610000D01*
X226964000Y-111750000D02*
X226964000Y-101610000D01*
X223124000Y-111750000D02*
X226964000Y-111750000D01*
D11*
%TO.C,BAT1*%
X99974400Y-109220000D02*
G75*
G03*
X99974400Y-109220000I-11226800J0D01*
G01*
X99314000Y-105308400D02*
X102057200Y-105308400D01*
X99314000Y-113131600D02*
X102057200Y-113131600D01*
X102057200Y-105308400D02*
X102057200Y-108153200D01*
X102057200Y-113131600D02*
X102057200Y-110286800D01*
D10*
%TO.C,C0*%
X176170000Y-91744748D02*
X176170000Y-93167252D01*
X174350000Y-91744748D02*
X174350000Y-93167252D01*
%TO.C,C1*%
X178414000Y-91783248D02*
X178414000Y-93205752D01*
X180234000Y-91783248D02*
X180234000Y-93205752D01*
%TO.C,C2*%
X191614999Y-91422749D02*
X191614999Y-92845253D01*
X189794999Y-91422749D02*
X189794999Y-92845253D01*
%TO.C,C3*%
X193144999Y-91422749D02*
X193144999Y-92845253D01*
X194964999Y-91422749D02*
X194964999Y-92845253D01*
%TO.C,C4*%
X207031000Y-91579248D02*
X207031000Y-93001752D01*
X205211000Y-91579248D02*
X205211000Y-93001752D01*
%TO.C,C5*%
X209115999Y-91676749D02*
X209115999Y-93099253D01*
X210935999Y-91676749D02*
X210935999Y-93099253D01*
%TO.C,C6*%
X142827001Y-101334251D02*
X142827001Y-99911747D01*
X141007001Y-101334251D02*
X141007001Y-99911747D01*
%TO.C,C7*%
X144357001Y-101334251D02*
X144357001Y-99911747D01*
X146177001Y-101334251D02*
X146177001Y-99911747D01*
%TO.C,C8*%
X149500000Y-91871748D02*
X149500000Y-93294252D01*
X147680000Y-91871748D02*
X147680000Y-93294252D01*
%TO.C,C9*%
X144378000Y-91871748D02*
X144378000Y-93294252D01*
X146198000Y-91871748D02*
X146198000Y-93294252D01*
%TO.C,C10*%
X164359000Y-91744748D02*
X164359000Y-93167252D01*
X162539000Y-91744748D02*
X162539000Y-93167252D01*
%TO.C,C11*%
X129646000Y-91617748D02*
X129646000Y-93040252D01*
X131466000Y-91617748D02*
X131466000Y-93040252D01*
%TO.C,C12*%
X134387000Y-91706248D02*
X134387000Y-93128752D01*
X132567000Y-91706248D02*
X132567000Y-93128752D01*
%TO.C,C13*%
X158555999Y-91695749D02*
X158555999Y-93118253D01*
X160375999Y-91695749D02*
X160375999Y-93118253D01*
%TO.C,R0*%
X211064000Y-109108000D02*
X211064000Y-105268000D01*
X211064000Y-105268000D02*
X200924000Y-105268000D01*
X200924000Y-105268000D02*
X200924000Y-109108000D01*
X200924000Y-109108000D02*
X211064000Y-109108000D01*
X217254000Y-107188000D02*
X211064000Y-107188000D01*
X194734000Y-107188000D02*
X200924000Y-107188000D01*
%TO.C,R1*%
X194734000Y-112268000D02*
X200924000Y-112268000D01*
X217254000Y-112268000D02*
X211064000Y-112268000D01*
X200924000Y-114188000D02*
X211064000Y-114188000D01*
X200924000Y-110348000D02*
X200924000Y-114188000D01*
X211064000Y-110348000D02*
X200924000Y-110348000D01*
X211064000Y-114188000D02*
X211064000Y-110348000D01*
%TO.C,R2*%
X99050000Y-44846000D02*
X99050000Y-41006000D01*
X99050000Y-41006000D02*
X88910000Y-41006000D01*
X88910000Y-41006000D02*
X88910000Y-44846000D01*
X88910000Y-44846000D02*
X99050000Y-44846000D01*
X105240000Y-42926000D02*
X99050000Y-42926000D01*
X82720000Y-42926000D02*
X88910000Y-42926000D01*
%TO.C,R3*%
X82720000Y-76327000D02*
X88910000Y-76327000D01*
X105240000Y-76327000D02*
X99050000Y-76327000D01*
X88910000Y-78247000D02*
X99050000Y-78247000D01*
X88910000Y-74407000D02*
X88910000Y-78247000D01*
X99050000Y-74407000D02*
X88910000Y-74407000D01*
X99050000Y-78247000D02*
X99050000Y-74407000D01*
%TO.C,R4*%
X88910000Y-91552000D02*
X88910000Y-95392000D01*
X88910000Y-95392000D02*
X99050000Y-95392000D01*
X99050000Y-95392000D02*
X99050000Y-91552000D01*
X99050000Y-91552000D02*
X88910000Y-91552000D01*
X82720000Y-93472000D02*
X88910000Y-93472000D01*
X105240000Y-93472000D02*
X99050000Y-93472000D01*
%TO.C,R5*%
X88910000Y-57643000D02*
X88910000Y-61483000D01*
X88910000Y-61483000D02*
X99050000Y-61483000D01*
X99050000Y-61483000D02*
X99050000Y-57643000D01*
X99050000Y-57643000D02*
X88910000Y-57643000D01*
X82720000Y-59563000D02*
X88910000Y-59563000D01*
X105240000Y-59563000D02*
X99050000Y-59563000D01*
%TO.C,R6*%
X89037000Y-85456000D02*
X89037000Y-89296000D01*
X89037000Y-89296000D02*
X99177000Y-89296000D01*
X99177000Y-89296000D02*
X99177000Y-85456000D01*
X99177000Y-85456000D02*
X89037000Y-85456000D01*
X82847000Y-87376000D02*
X89037000Y-87376000D01*
X105367000Y-87376000D02*
X99177000Y-87376000D01*
%TO.C,R7*%
X105240000Y-53848000D02*
X99050000Y-53848000D01*
X82720000Y-53848000D02*
X88910000Y-53848000D01*
X99050000Y-51928000D02*
X88910000Y-51928000D01*
X99050000Y-55768000D02*
X99050000Y-51928000D01*
X88910000Y-55768000D02*
X99050000Y-55768000D01*
X88910000Y-51928000D02*
X88910000Y-55768000D01*
%TO.C,R8*%
X99050000Y-83454000D02*
X99050000Y-79614000D01*
X99050000Y-79614000D02*
X88910000Y-79614000D01*
X88910000Y-79614000D02*
X88910000Y-83454000D01*
X88910000Y-83454000D02*
X99050000Y-83454000D01*
X105240000Y-81534000D02*
X99050000Y-81534000D01*
X82720000Y-81534000D02*
X88910000Y-81534000D01*
%TO.C,R9*%
X82593000Y-48006000D02*
X88783000Y-48006000D01*
X105113000Y-48006000D02*
X98923000Y-48006000D01*
X88783000Y-49926000D02*
X98923000Y-49926000D01*
X88783000Y-46086000D02*
X88783000Y-49926000D01*
X98923000Y-46086000D02*
X88783000Y-46086000D01*
X98923000Y-49926000D02*
X98923000Y-46086000D01*
%TO.C,R10*%
X99050000Y-73040000D02*
X99050000Y-69200000D01*
X99050000Y-69200000D02*
X88910000Y-69200000D01*
X88910000Y-69200000D02*
X88910000Y-73040000D01*
X88910000Y-73040000D02*
X99050000Y-73040000D01*
X105240000Y-71120000D02*
X99050000Y-71120000D01*
X82720000Y-71120000D02*
X88910000Y-71120000D01*
%TO.C,R11*%
X99050000Y-39766000D02*
X99050000Y-35926000D01*
X99050000Y-35926000D02*
X88910000Y-35926000D01*
X88910000Y-35926000D02*
X88910000Y-39766000D01*
X88910000Y-39766000D02*
X99050000Y-39766000D01*
X105240000Y-37846000D02*
X99050000Y-37846000D01*
X82720000Y-37846000D02*
X88910000Y-37846000D01*
%TO.C,R12*%
X99050000Y-67325000D02*
X99050000Y-63485000D01*
X99050000Y-63485000D02*
X88910000Y-63485000D01*
X88910000Y-63485000D02*
X88910000Y-67325000D01*
X88910000Y-67325000D02*
X99050000Y-67325000D01*
X105240000Y-65405000D02*
X99050000Y-65405000D01*
X82720000Y-65405000D02*
X88910000Y-65405000D01*
%TO.C,R13*%
X99050000Y-34813000D02*
X99050000Y-30973000D01*
X99050000Y-30973000D02*
X88910000Y-30973000D01*
X88910000Y-30973000D02*
X88910000Y-34813000D01*
X88910000Y-34813000D02*
X99050000Y-34813000D01*
X105240000Y-32893000D02*
X99050000Y-32893000D01*
X82720000Y-32893000D02*
X88910000Y-32893000D01*
D11*
%TO.C,S1*%
X127680000Y-107120000D02*
X127180000Y-107120000D01*
X127680000Y-107120000D02*
X127680000Y-107620000D01*
X115780000Y-107120000D02*
X115780000Y-107620000D01*
X115780000Y-107120000D02*
X116280000Y-107120000D01*
X115780000Y-111320000D02*
X115780000Y-110820000D01*
X115780000Y-111320000D02*
X116280000Y-111320000D01*
X127680000Y-111320000D02*
X127680000Y-110820000D01*
X127680000Y-111320000D02*
X127180000Y-111320000D01*
D10*
%TO.C,U0*%
X148650000Y-105290000D02*
X138370000Y-105290000D01*
X148650000Y-115690000D02*
X148650000Y-105290000D01*
X138370000Y-115690000D02*
X148650000Y-115690000D01*
X138370000Y-105290000D02*
X138370000Y-115690000D01*
X146160000Y-105350000D02*
X144510000Y-105350000D01*
X146160000Y-115630000D02*
X146160000Y-105350000D01*
X140860000Y-115630000D02*
X146160000Y-115630000D01*
X140860000Y-105350000D02*
X140860000Y-115630000D01*
X142510000Y-105350000D02*
X140860000Y-105350000D01*
X144510000Y-105350000D02*
G75*
G02*
X142510000Y-105350000I-1000000J0D01*
G01*
%TO.C,U1*%
X174642000Y-85150000D02*
X176292000Y-85150000D01*
X174642000Y-64710000D02*
X174642000Y-85150000D01*
X179942000Y-64710000D02*
X174642000Y-64710000D01*
X179942000Y-85150000D02*
X179942000Y-64710000D01*
X178292000Y-85150000D02*
X179942000Y-85150000D01*
X176292000Y-85150000D02*
G75*
G02*
X178292000Y-85150000I1000000J0D01*
G01*
%TO.C,U2*%
X173757000Y-30755000D02*
X175387000Y-30755000D01*
X173757000Y-32385000D02*
X173757000Y-30755000D01*
D12*
X181737000Y-43815000D02*
X181737000Y-31115000D01*
X174117000Y-43815000D02*
X181737000Y-43815000D01*
X174117000Y-31115000D02*
X174117000Y-43815000D01*
X181737000Y-31115000D02*
X174117000Y-31115000D01*
D10*
%TO.C,U3*%
X128922000Y-85150000D02*
X130572000Y-85150000D01*
X128922000Y-64710000D02*
X128922000Y-85150000D01*
X134222000Y-64710000D02*
X128922000Y-64710000D01*
X134222000Y-85150000D02*
X134222000Y-64710000D01*
X132572000Y-85150000D02*
X134222000Y-85150000D01*
X130572000Y-85150000D02*
G75*
G02*
X132572000Y-85150000I1000000J0D01*
G01*
%TO.C,U4*%
X126894000Y-30755000D02*
X128524000Y-30755000D01*
X126894000Y-32385000D02*
X126894000Y-30755000D01*
D12*
X134874000Y-43815000D02*
X134874000Y-31115000D01*
X127254000Y-43815000D02*
X134874000Y-43815000D01*
X127254000Y-31115000D02*
X127254000Y-43815000D01*
X134874000Y-31115000D02*
X127254000Y-31115000D01*
D10*
%TO.C,U5*%
X189882000Y-85150000D02*
X191532000Y-85150000D01*
X189882000Y-64710000D02*
X189882000Y-85150000D01*
X195182000Y-64710000D02*
X189882000Y-64710000D01*
X195182000Y-85150000D02*
X195182000Y-64710000D01*
X193532000Y-85150000D02*
X195182000Y-85150000D01*
X191532000Y-85150000D02*
G75*
G02*
X193532000Y-85150000I1000000J0D01*
G01*
D12*
%TO.C,U6*%
X198374000Y-31115000D02*
X190754000Y-31115000D01*
X190754000Y-31115000D02*
X190754000Y-43815000D01*
X190754000Y-43815000D02*
X198374000Y-43815000D01*
X198374000Y-43815000D02*
X198374000Y-31115000D01*
D10*
X190394000Y-32385000D02*
X190394000Y-30755000D01*
X190394000Y-30755000D02*
X192024000Y-30755000D01*
%TO.C,U7*%
X162544000Y-85150000D02*
X164194000Y-85150000D01*
X164194000Y-85150000D02*
X164194000Y-64710000D01*
X164194000Y-64710000D02*
X158894000Y-64710000D01*
X158894000Y-64710000D02*
X158894000Y-85150000D01*
X158894000Y-85150000D02*
X160544000Y-85150000D01*
X160544000Y-85150000D02*
G75*
G02*
X162544000Y-85150000I1000000J0D01*
G01*
D12*
%TO.C,U8*%
X165354000Y-31115000D02*
X157734000Y-31115000D01*
X157734000Y-31115000D02*
X157734000Y-43815000D01*
X157734000Y-43815000D02*
X165354000Y-43815000D01*
X165354000Y-43815000D02*
X165354000Y-31115000D01*
D10*
X157374000Y-32385000D02*
X157374000Y-30755000D01*
X157374000Y-30755000D02*
X159004000Y-30755000D01*
%TO.C,U9*%
X147812000Y-85150000D02*
X149462000Y-85150000D01*
X149462000Y-85150000D02*
X149462000Y-64710000D01*
X149462000Y-64710000D02*
X144162000Y-64710000D01*
X144162000Y-64710000D02*
X144162000Y-85150000D01*
X144162000Y-85150000D02*
X145812000Y-85150000D01*
X145812000Y-85150000D02*
G75*
G02*
X147812000Y-85150000I1000000J0D01*
G01*
D12*
%TO.C,U10*%
X150114000Y-31115000D02*
X142494000Y-31115000D01*
X142494000Y-31115000D02*
X142494000Y-43815000D01*
X142494000Y-43815000D02*
X150114000Y-43815000D01*
X150114000Y-43815000D02*
X150114000Y-31115000D01*
D10*
X142134000Y-32385000D02*
X142134000Y-30755000D01*
X142134000Y-30755000D02*
X143764000Y-30755000D01*
%TO.C,U11*%
X205634000Y-30755000D02*
X207264000Y-30755000D01*
X205634000Y-32385000D02*
X205634000Y-30755000D01*
D12*
X213614000Y-43815000D02*
X213614000Y-31115000D01*
X205994000Y-43815000D02*
X213614000Y-43815000D01*
X205994000Y-31115000D02*
X205994000Y-43815000D01*
X213614000Y-31115000D02*
X205994000Y-31115000D01*
D10*
%TO.C,U12*%
X209026000Y-85023000D02*
X210676000Y-85023000D01*
X210676000Y-85023000D02*
X210676000Y-64583000D01*
X210676000Y-64583000D02*
X205376000Y-64583000D01*
X205376000Y-64583000D02*
X205376000Y-85023000D01*
X205376000Y-85023000D02*
X207026000Y-85023000D01*
X207026000Y-85023000D02*
G75*
G02*
X209026000Y-85023000I1000000J0D01*
G01*
%TO.C,SW1*%
D12*
X162130761Y-107538333D02*
X162178380Y-107395476D01*
X162178380Y-107157380D01*
X162130761Y-107062142D01*
X162083142Y-107014523D01*
X161987904Y-106966904D01*
X161892666Y-106966904D01*
X161797428Y-107014523D01*
X161749809Y-107062142D01*
X161702190Y-107157380D01*
X161654571Y-107347857D01*
X161606952Y-107443095D01*
X161559333Y-107490714D01*
X161464095Y-107538333D01*
X161368857Y-107538333D01*
X161273619Y-107490714D01*
X161226000Y-107443095D01*
X161178380Y-107347857D01*
X161178380Y-107109761D01*
X161226000Y-106966904D01*
X161178380Y-106633571D02*
X162178380Y-106395476D01*
X161464095Y-106205000D01*
X162178380Y-106014523D01*
X161178380Y-105776428D01*
X162178380Y-104871666D02*
X162178380Y-105443095D01*
X162178380Y-105157380D02*
X161178380Y-105157380D01*
X161321238Y-105252619D01*
X161416476Y-105347857D01*
X161464095Y-105443095D01*
%TO.C,R14*%
X225496380Y-107322857D02*
X225020190Y-107656190D01*
X225496380Y-107894285D02*
X224496380Y-107894285D01*
X224496380Y-107513333D01*
X224544000Y-107418095D01*
X224591619Y-107370476D01*
X224686857Y-107322857D01*
X224829714Y-107322857D01*
X224924952Y-107370476D01*
X224972571Y-107418095D01*
X225020190Y-107513333D01*
X225020190Y-107894285D01*
X225496380Y-106370476D02*
X225496380Y-106941904D01*
X225496380Y-106656190D02*
X224496380Y-106656190D01*
X224639238Y-106751428D01*
X224734476Y-106846666D01*
X224782095Y-106941904D01*
X224829714Y-105513333D02*
X225496380Y-105513333D01*
X224448761Y-105751428D02*
X225163047Y-105989523D01*
X225163047Y-105370476D01*
%TO.C,BAT1*%
X87594274Y-96842271D02*
X87737131Y-96889890D01*
X87784750Y-96937509D01*
X87832369Y-97032747D01*
X87832369Y-97175604D01*
X87784750Y-97270842D01*
X87737131Y-97318461D01*
X87641893Y-97366080D01*
X87260940Y-97366080D01*
X87260940Y-96366080D01*
X87594274Y-96366080D01*
X87689512Y-96413700D01*
X87737131Y-96461319D01*
X87784750Y-96556557D01*
X87784750Y-96651795D01*
X87737131Y-96747033D01*
X87689512Y-96794652D01*
X87594274Y-96842271D01*
X87260940Y-96842271D01*
X88213321Y-97080366D02*
X88689512Y-97080366D01*
X88118083Y-97366080D02*
X88451417Y-96366080D01*
X88784750Y-97366080D01*
X88975226Y-96366080D02*
X89546655Y-96366080D01*
X89260940Y-97366080D02*
X89260940Y-96366080D01*
X90403798Y-97366080D02*
X89832369Y-97366080D01*
X90118083Y-97366080D02*
X90118083Y-96366080D01*
X90022845Y-96508938D01*
X89927607Y-96604176D01*
X89832369Y-96651795D01*
%TO.C,C0*%
X173585142Y-92622666D02*
X173632761Y-92670285D01*
X173680380Y-92813142D01*
X173680380Y-92908380D01*
X173632761Y-93051238D01*
X173537523Y-93146476D01*
X173442285Y-93194095D01*
X173251809Y-93241714D01*
X173108952Y-93241714D01*
X172918476Y-93194095D01*
X172823238Y-93146476D01*
X172728000Y-93051238D01*
X172680380Y-92908380D01*
X172680380Y-92813142D01*
X172728000Y-92670285D01*
X172775619Y-92622666D01*
X172680380Y-92003619D02*
X172680380Y-91908380D01*
X172728000Y-91813142D01*
X172775619Y-91765523D01*
X172870857Y-91717904D01*
X173061333Y-91670285D01*
X173299428Y-91670285D01*
X173489904Y-91717904D01*
X173585142Y-91765523D01*
X173632761Y-91813142D01*
X173680380Y-91908380D01*
X173680380Y-92003619D01*
X173632761Y-92098857D01*
X173585142Y-92146476D01*
X173489904Y-92194095D01*
X173299428Y-92241714D01*
X173061333Y-92241714D01*
X172870857Y-92194095D01*
X172775619Y-92146476D01*
X172728000Y-92098857D01*
X172680380Y-92003619D01*
%TO.C,C1*%
X181531142Y-92661166D02*
X181578761Y-92708785D01*
X181626380Y-92851642D01*
X181626380Y-92946880D01*
X181578761Y-93089738D01*
X181483523Y-93184976D01*
X181388285Y-93232595D01*
X181197809Y-93280214D01*
X181054952Y-93280214D01*
X180864476Y-93232595D01*
X180769238Y-93184976D01*
X180674000Y-93089738D01*
X180626380Y-92946880D01*
X180626380Y-92851642D01*
X180674000Y-92708785D01*
X180721619Y-92661166D01*
X181626380Y-91708785D02*
X181626380Y-92280214D01*
X181626380Y-91994500D02*
X180626380Y-91994500D01*
X180769238Y-92089738D01*
X180864476Y-92184976D01*
X180912095Y-92280214D01*
%TO.C,C2*%
X192912141Y-92300667D02*
X192959760Y-92348286D01*
X193007379Y-92491143D01*
X193007379Y-92586381D01*
X192959760Y-92729239D01*
X192864522Y-92824477D01*
X192769284Y-92872096D01*
X192578808Y-92919715D01*
X192435951Y-92919715D01*
X192245475Y-92872096D01*
X192150237Y-92824477D01*
X192054999Y-92729239D01*
X192007379Y-92586381D01*
X192007379Y-92491143D01*
X192054999Y-92348286D01*
X192102618Y-92300667D01*
X192102618Y-91919715D02*
X192054999Y-91872096D01*
X192007379Y-91776858D01*
X192007379Y-91538762D01*
X192054999Y-91443524D01*
X192102618Y-91395905D01*
X192197856Y-91348286D01*
X192293094Y-91348286D01*
X192435951Y-91395905D01*
X193007379Y-91967334D01*
X193007379Y-91348286D01*
%TO.C,C3*%
X196262141Y-92300667D02*
X196309760Y-92348286D01*
X196357379Y-92491143D01*
X196357379Y-92586381D01*
X196309760Y-92729239D01*
X196214522Y-92824477D01*
X196119284Y-92872096D01*
X195928808Y-92919715D01*
X195785951Y-92919715D01*
X195595475Y-92872096D01*
X195500237Y-92824477D01*
X195404999Y-92729239D01*
X195357379Y-92586381D01*
X195357379Y-92491143D01*
X195404999Y-92348286D01*
X195452618Y-92300667D01*
X195357379Y-91967334D02*
X195357379Y-91348286D01*
X195738332Y-91681620D01*
X195738332Y-91538762D01*
X195785951Y-91443524D01*
X195833570Y-91395905D01*
X195928808Y-91348286D01*
X196166903Y-91348286D01*
X196262141Y-91395905D01*
X196309760Y-91443524D01*
X196357379Y-91538762D01*
X196357379Y-91824477D01*
X196309760Y-91919715D01*
X196262141Y-91967334D01*
%TO.C,C4*%
X208328142Y-92457166D02*
X208375761Y-92504785D01*
X208423380Y-92647642D01*
X208423380Y-92742880D01*
X208375761Y-92885738D01*
X208280523Y-92980976D01*
X208185285Y-93028595D01*
X207994809Y-93076214D01*
X207851952Y-93076214D01*
X207661476Y-93028595D01*
X207566238Y-92980976D01*
X207471000Y-92885738D01*
X207423380Y-92742880D01*
X207423380Y-92647642D01*
X207471000Y-92504785D01*
X207518619Y-92457166D01*
X207756714Y-91600023D02*
X208423380Y-91600023D01*
X207375761Y-91838119D02*
X208090047Y-92076214D01*
X208090047Y-91457166D01*
%TO.C,C5*%
X212233141Y-92554667D02*
X212280760Y-92602286D01*
X212328379Y-92745143D01*
X212328379Y-92840381D01*
X212280760Y-92983239D01*
X212185522Y-93078477D01*
X212090284Y-93126096D01*
X211899808Y-93173715D01*
X211756951Y-93173715D01*
X211566475Y-93126096D01*
X211471237Y-93078477D01*
X211375999Y-92983239D01*
X211328379Y-92840381D01*
X211328379Y-92745143D01*
X211375999Y-92602286D01*
X211423618Y-92554667D01*
X211328379Y-91649905D02*
X211328379Y-92126096D01*
X211804570Y-92173715D01*
X211756951Y-92126096D01*
X211709332Y-92030858D01*
X211709332Y-91792762D01*
X211756951Y-91697524D01*
X211804570Y-91649905D01*
X211899808Y-91602286D01*
X212137903Y-91602286D01*
X212233141Y-91649905D01*
X212280760Y-91697524D01*
X212328379Y-91792762D01*
X212328379Y-92030858D01*
X212280760Y-92126096D01*
X212233141Y-92173715D01*
%TO.C,C6*%
X140424143Y-100789665D02*
X140471762Y-100837284D01*
X140519381Y-100980141D01*
X140519381Y-101075379D01*
X140471762Y-101218237D01*
X140376524Y-101313475D01*
X140281286Y-101361094D01*
X140090810Y-101408713D01*
X139947953Y-101408713D01*
X139757477Y-101361094D01*
X139662239Y-101313475D01*
X139567001Y-101218237D01*
X139519381Y-101075379D01*
X139519381Y-100980141D01*
X139567001Y-100837284D01*
X139614620Y-100789665D01*
X139519381Y-99932522D02*
X139519381Y-100122999D01*
X139567001Y-100218237D01*
X139614620Y-100265856D01*
X139757477Y-100361094D01*
X139947953Y-100408713D01*
X140328905Y-100408713D01*
X140424143Y-100361094D01*
X140471762Y-100313475D01*
X140519381Y-100218237D01*
X140519381Y-100027760D01*
X140471762Y-99932522D01*
X140424143Y-99884903D01*
X140328905Y-99837284D01*
X140090810Y-99837284D01*
X139995572Y-99884903D01*
X139947953Y-99932522D01*
X139900334Y-100027760D01*
X139900334Y-100218237D01*
X139947953Y-100313475D01*
X139995572Y-100361094D01*
X140090810Y-100408713D01*
%TO.C,C7*%
X147677142Y-100750666D02*
X147724761Y-100798285D01*
X147772380Y-100941142D01*
X147772380Y-101036380D01*
X147724761Y-101179238D01*
X147629523Y-101274476D01*
X147534285Y-101322095D01*
X147343809Y-101369714D01*
X147200952Y-101369714D01*
X147010476Y-101322095D01*
X146915238Y-101274476D01*
X146820000Y-101179238D01*
X146772380Y-101036380D01*
X146772380Y-100941142D01*
X146820000Y-100798285D01*
X146867619Y-100750666D01*
X146772380Y-100417333D02*
X146772380Y-99750666D01*
X147772380Y-100179238D01*
%TO.C,C8*%
X150797142Y-92749666D02*
X150844761Y-92797285D01*
X150892380Y-92940142D01*
X150892380Y-93035380D01*
X150844761Y-93178238D01*
X150749523Y-93273476D01*
X150654285Y-93321095D01*
X150463809Y-93368714D01*
X150320952Y-93368714D01*
X150130476Y-93321095D01*
X150035238Y-93273476D01*
X149940000Y-93178238D01*
X149892380Y-93035380D01*
X149892380Y-92940142D01*
X149940000Y-92797285D01*
X149987619Y-92749666D01*
X150320952Y-92178238D02*
X150273333Y-92273476D01*
X150225714Y-92321095D01*
X150130476Y-92368714D01*
X150082857Y-92368714D01*
X149987619Y-92321095D01*
X149940000Y-92273476D01*
X149892380Y-92178238D01*
X149892380Y-91987761D01*
X149940000Y-91892523D01*
X149987619Y-91844904D01*
X150082857Y-91797285D01*
X150130476Y-91797285D01*
X150225714Y-91844904D01*
X150273333Y-91892523D01*
X150320952Y-91987761D01*
X150320952Y-92178238D01*
X150368571Y-92273476D01*
X150416190Y-92321095D01*
X150511428Y-92368714D01*
X150701904Y-92368714D01*
X150797142Y-92321095D01*
X150844761Y-92273476D01*
X150892380Y-92178238D01*
X150892380Y-91987761D01*
X150844761Y-91892523D01*
X150797142Y-91844904D01*
X150701904Y-91797285D01*
X150511428Y-91797285D01*
X150416190Y-91844904D01*
X150368571Y-91892523D01*
X150320952Y-91987761D01*
%TO.C,C9*%
X143613142Y-92749666D02*
X143660761Y-92797285D01*
X143708380Y-92940142D01*
X143708380Y-93035380D01*
X143660761Y-93178238D01*
X143565523Y-93273476D01*
X143470285Y-93321095D01*
X143279809Y-93368714D01*
X143136952Y-93368714D01*
X142946476Y-93321095D01*
X142851238Y-93273476D01*
X142756000Y-93178238D01*
X142708380Y-93035380D01*
X142708380Y-92940142D01*
X142756000Y-92797285D01*
X142803619Y-92749666D01*
X143708380Y-92273476D02*
X143708380Y-92083000D01*
X143660761Y-91987761D01*
X143613142Y-91940142D01*
X143470285Y-91844904D01*
X143279809Y-91797285D01*
X142898857Y-91797285D01*
X142803619Y-91844904D01*
X142756000Y-91892523D01*
X142708380Y-91987761D01*
X142708380Y-92178238D01*
X142756000Y-92273476D01*
X142803619Y-92321095D01*
X142898857Y-92368714D01*
X143136952Y-92368714D01*
X143232190Y-92321095D01*
X143279809Y-92273476D01*
X143327428Y-92178238D01*
X143327428Y-91987761D01*
X143279809Y-91892523D01*
X143232190Y-91844904D01*
X143136952Y-91797285D01*
%TO.C,C10*%
X165656142Y-93098857D02*
X165703761Y-93146476D01*
X165751380Y-93289333D01*
X165751380Y-93384571D01*
X165703761Y-93527428D01*
X165608523Y-93622666D01*
X165513285Y-93670285D01*
X165322809Y-93717904D01*
X165179952Y-93717904D01*
X164989476Y-93670285D01*
X164894238Y-93622666D01*
X164799000Y-93527428D01*
X164751380Y-93384571D01*
X164751380Y-93289333D01*
X164799000Y-93146476D01*
X164846619Y-93098857D01*
X165751380Y-92146476D02*
X165751380Y-92717904D01*
X165751380Y-92432190D02*
X164751380Y-92432190D01*
X164894238Y-92527428D01*
X164989476Y-92622666D01*
X165037095Y-92717904D01*
X164751380Y-91527428D02*
X164751380Y-91432190D01*
X164799000Y-91336952D01*
X164846619Y-91289333D01*
X164941857Y-91241714D01*
X165132333Y-91194095D01*
X165370428Y-91194095D01*
X165560904Y-91241714D01*
X165656142Y-91289333D01*
X165703761Y-91336952D01*
X165751380Y-91432190D01*
X165751380Y-91527428D01*
X165703761Y-91622666D01*
X165656142Y-91670285D01*
X165560904Y-91717904D01*
X165370428Y-91765523D01*
X165132333Y-91765523D01*
X164941857Y-91717904D01*
X164846619Y-91670285D01*
X164799000Y-91622666D01*
X164751380Y-91527428D01*
%TO.C,C11*%
X128881142Y-92971857D02*
X128928761Y-93019476D01*
X128976380Y-93162333D01*
X128976380Y-93257571D01*
X128928761Y-93400428D01*
X128833523Y-93495666D01*
X128738285Y-93543285D01*
X128547809Y-93590904D01*
X128404952Y-93590904D01*
X128214476Y-93543285D01*
X128119238Y-93495666D01*
X128024000Y-93400428D01*
X127976380Y-93257571D01*
X127976380Y-93162333D01*
X128024000Y-93019476D01*
X128071619Y-92971857D01*
X128976380Y-92019476D02*
X128976380Y-92590904D01*
X128976380Y-92305190D02*
X127976380Y-92305190D01*
X128119238Y-92400428D01*
X128214476Y-92495666D01*
X128262095Y-92590904D01*
X128976380Y-91067095D02*
X128976380Y-91638523D01*
X128976380Y-91352809D02*
X127976380Y-91352809D01*
X128119238Y-91448047D01*
X128214476Y-91543285D01*
X128262095Y-91638523D01*
%TO.C,C12*%
X135684142Y-93060357D02*
X135731761Y-93107976D01*
X135779380Y-93250833D01*
X135779380Y-93346071D01*
X135731761Y-93488928D01*
X135636523Y-93584166D01*
X135541285Y-93631785D01*
X135350809Y-93679404D01*
X135207952Y-93679404D01*
X135017476Y-93631785D01*
X134922238Y-93584166D01*
X134827000Y-93488928D01*
X134779380Y-93346071D01*
X134779380Y-93250833D01*
X134827000Y-93107976D01*
X134874619Y-93060357D01*
X135779380Y-92107976D02*
X135779380Y-92679404D01*
X135779380Y-92393690D02*
X134779380Y-92393690D01*
X134922238Y-92488928D01*
X135017476Y-92584166D01*
X135065095Y-92679404D01*
X134874619Y-91727023D02*
X134827000Y-91679404D01*
X134779380Y-91584166D01*
X134779380Y-91346071D01*
X134827000Y-91250833D01*
X134874619Y-91203214D01*
X134969857Y-91155595D01*
X135065095Y-91155595D01*
X135207952Y-91203214D01*
X135779380Y-91774642D01*
X135779380Y-91155595D01*
%TO.C,C13*%
X157837142Y-93098857D02*
X157884761Y-93146476D01*
X157932380Y-93289333D01*
X157932380Y-93384571D01*
X157884761Y-93527428D01*
X157789523Y-93622666D01*
X157694285Y-93670285D01*
X157503809Y-93717904D01*
X157360952Y-93717904D01*
X157170476Y-93670285D01*
X157075238Y-93622666D01*
X156980000Y-93527428D01*
X156932380Y-93384571D01*
X156932380Y-93289333D01*
X156980000Y-93146476D01*
X157027619Y-93098857D01*
X157932380Y-92146476D02*
X157932380Y-92717904D01*
X157932380Y-92432190D02*
X156932380Y-92432190D01*
X157075238Y-92527428D01*
X157170476Y-92622666D01*
X157218095Y-92717904D01*
X156932380Y-91813142D02*
X156932380Y-91194095D01*
X157313333Y-91527428D01*
X157313333Y-91384571D01*
X157360952Y-91289333D01*
X157408571Y-91241714D01*
X157503809Y-91194095D01*
X157741904Y-91194095D01*
X157837142Y-91241714D01*
X157884761Y-91289333D01*
X157932380Y-91384571D01*
X157932380Y-91670285D01*
X157884761Y-91765523D01*
X157837142Y-91813142D01*
%TO.C,R0*%
X205827333Y-107640380D02*
X205494000Y-107164190D01*
X205255904Y-107640380D02*
X205255904Y-106640380D01*
X205636857Y-106640380D01*
X205732095Y-106688000D01*
X205779714Y-106735619D01*
X205827333Y-106830857D01*
X205827333Y-106973714D01*
X205779714Y-107068952D01*
X205732095Y-107116571D01*
X205636857Y-107164190D01*
X205255904Y-107164190D01*
X206446380Y-106640380D02*
X206541619Y-106640380D01*
X206636857Y-106688000D01*
X206684476Y-106735619D01*
X206732095Y-106830857D01*
X206779714Y-107021333D01*
X206779714Y-107259428D01*
X206732095Y-107449904D01*
X206684476Y-107545142D01*
X206636857Y-107592761D01*
X206541619Y-107640380D01*
X206446380Y-107640380D01*
X206351142Y-107592761D01*
X206303523Y-107545142D01*
X206255904Y-107449904D01*
X206208285Y-107259428D01*
X206208285Y-107021333D01*
X206255904Y-106830857D01*
X206303523Y-106735619D01*
X206351142Y-106688000D01*
X206446380Y-106640380D01*
%TO.C,R1*%
X205827333Y-112720380D02*
X205494000Y-112244190D01*
X205255904Y-112720380D02*
X205255904Y-111720380D01*
X205636857Y-111720380D01*
X205732095Y-111768000D01*
X205779714Y-111815619D01*
X205827333Y-111910857D01*
X205827333Y-112053714D01*
X205779714Y-112148952D01*
X205732095Y-112196571D01*
X205636857Y-112244190D01*
X205255904Y-112244190D01*
X206779714Y-112720380D02*
X206208285Y-112720380D01*
X206494000Y-112720380D02*
X206494000Y-111720380D01*
X206398761Y-111863238D01*
X206303523Y-111958476D01*
X206208285Y-112006095D01*
%TO.C,R2*%
X93813333Y-43632380D02*
X93480000Y-43156190D01*
X93241904Y-43632380D02*
X93241904Y-42632380D01*
X93622857Y-42632380D01*
X93718095Y-42680000D01*
X93765714Y-42727619D01*
X93813333Y-42822857D01*
X93813333Y-42965714D01*
X93765714Y-43060952D01*
X93718095Y-43108571D01*
X93622857Y-43156190D01*
X93241904Y-43156190D01*
X94194285Y-42727619D02*
X94241904Y-42680000D01*
X94337142Y-42632380D01*
X94575238Y-42632380D01*
X94670476Y-42680000D01*
X94718095Y-42727619D01*
X94765714Y-42822857D01*
X94765714Y-42918095D01*
X94718095Y-43060952D01*
X94146666Y-43632380D01*
X94765714Y-43632380D01*
%TO.C,R3*%
X93813333Y-76652380D02*
X93480000Y-76176190D01*
X93241904Y-76652380D02*
X93241904Y-75652380D01*
X93622857Y-75652380D01*
X93718095Y-75700000D01*
X93765714Y-75747619D01*
X93813333Y-75842857D01*
X93813333Y-75985714D01*
X93765714Y-76080952D01*
X93718095Y-76128571D01*
X93622857Y-76176190D01*
X93241904Y-76176190D01*
X94146666Y-75652380D02*
X94765714Y-75652380D01*
X94432380Y-76033333D01*
X94575238Y-76033333D01*
X94670476Y-76080952D01*
X94718095Y-76128571D01*
X94765714Y-76223809D01*
X94765714Y-76461904D01*
X94718095Y-76557142D01*
X94670476Y-76604761D01*
X94575238Y-76652380D01*
X94289523Y-76652380D01*
X94194285Y-76604761D01*
X94146666Y-76557142D01*
%TO.C,R4*%
X93813333Y-93924380D02*
X93480000Y-93448190D01*
X93241904Y-93924380D02*
X93241904Y-92924380D01*
X93622857Y-92924380D01*
X93718095Y-92972000D01*
X93765714Y-93019619D01*
X93813333Y-93114857D01*
X93813333Y-93257714D01*
X93765714Y-93352952D01*
X93718095Y-93400571D01*
X93622857Y-93448190D01*
X93241904Y-93448190D01*
X94670476Y-93257714D02*
X94670476Y-93924380D01*
X94432380Y-92876761D02*
X94194285Y-93591047D01*
X94813333Y-93591047D01*
%TO.C,R5*%
X93813333Y-59888380D02*
X93480000Y-59412190D01*
X93241904Y-59888380D02*
X93241904Y-58888380D01*
X93622857Y-58888380D01*
X93718095Y-58936000D01*
X93765714Y-58983619D01*
X93813333Y-59078857D01*
X93813333Y-59221714D01*
X93765714Y-59316952D01*
X93718095Y-59364571D01*
X93622857Y-59412190D01*
X93241904Y-59412190D01*
X94718095Y-58888380D02*
X94241904Y-58888380D01*
X94194285Y-59364571D01*
X94241904Y-59316952D01*
X94337142Y-59269333D01*
X94575238Y-59269333D01*
X94670476Y-59316952D01*
X94718095Y-59364571D01*
X94765714Y-59459809D01*
X94765714Y-59697904D01*
X94718095Y-59793142D01*
X94670476Y-59840761D01*
X94575238Y-59888380D01*
X94337142Y-59888380D01*
X94241904Y-59840761D01*
X94194285Y-59793142D01*
%TO.C,R6*%
X93940333Y-87828380D02*
X93607000Y-87352190D01*
X93368904Y-87828380D02*
X93368904Y-86828380D01*
X93749857Y-86828380D01*
X93845095Y-86876000D01*
X93892714Y-86923619D01*
X93940333Y-87018857D01*
X93940333Y-87161714D01*
X93892714Y-87256952D01*
X93845095Y-87304571D01*
X93749857Y-87352190D01*
X93368904Y-87352190D01*
X94797476Y-86828380D02*
X94607000Y-86828380D01*
X94511761Y-86876000D01*
X94464142Y-86923619D01*
X94368904Y-87066476D01*
X94321285Y-87256952D01*
X94321285Y-87637904D01*
X94368904Y-87733142D01*
X94416523Y-87780761D01*
X94511761Y-87828380D01*
X94702238Y-87828380D01*
X94797476Y-87780761D01*
X94845095Y-87733142D01*
X94892714Y-87637904D01*
X94892714Y-87399809D01*
X94845095Y-87304571D01*
X94797476Y-87256952D01*
X94702238Y-87209333D01*
X94511761Y-87209333D01*
X94416523Y-87256952D01*
X94368904Y-87304571D01*
X94321285Y-87399809D01*
%TO.C,R7*%
X93813333Y-54300380D02*
X93480000Y-53824190D01*
X93241904Y-54300380D02*
X93241904Y-53300380D01*
X93622857Y-53300380D01*
X93718095Y-53348000D01*
X93765714Y-53395619D01*
X93813333Y-53490857D01*
X93813333Y-53633714D01*
X93765714Y-53728952D01*
X93718095Y-53776571D01*
X93622857Y-53824190D01*
X93241904Y-53824190D01*
X94146666Y-53300380D02*
X94813333Y-53300380D01*
X94384761Y-54300380D01*
%TO.C,R8*%
X93813333Y-82240380D02*
X93480000Y-81764190D01*
X93241904Y-82240380D02*
X93241904Y-81240380D01*
X93622857Y-81240380D01*
X93718095Y-81288000D01*
X93765714Y-81335619D01*
X93813333Y-81430857D01*
X93813333Y-81573714D01*
X93765714Y-81668952D01*
X93718095Y-81716571D01*
X93622857Y-81764190D01*
X93241904Y-81764190D01*
X94384761Y-81668952D02*
X94289523Y-81621333D01*
X94241904Y-81573714D01*
X94194285Y-81478476D01*
X94194285Y-81430857D01*
X94241904Y-81335619D01*
X94289523Y-81288000D01*
X94384761Y-81240380D01*
X94575238Y-81240380D01*
X94670476Y-81288000D01*
X94718095Y-81335619D01*
X94765714Y-81430857D01*
X94765714Y-81478476D01*
X94718095Y-81573714D01*
X94670476Y-81621333D01*
X94575238Y-81668952D01*
X94384761Y-81668952D01*
X94289523Y-81716571D01*
X94241904Y-81764190D01*
X94194285Y-81859428D01*
X94194285Y-82049904D01*
X94241904Y-82145142D01*
X94289523Y-82192761D01*
X94384761Y-82240380D01*
X94575238Y-82240380D01*
X94670476Y-82192761D01*
X94718095Y-82145142D01*
X94765714Y-82049904D01*
X94765714Y-81859428D01*
X94718095Y-81764190D01*
X94670476Y-81716571D01*
X94575238Y-81668952D01*
%TO.C,R9*%
X93686333Y-48712380D02*
X93353000Y-48236190D01*
X93114904Y-48712380D02*
X93114904Y-47712380D01*
X93495857Y-47712380D01*
X93591095Y-47760000D01*
X93638714Y-47807619D01*
X93686333Y-47902857D01*
X93686333Y-48045714D01*
X93638714Y-48140952D01*
X93591095Y-48188571D01*
X93495857Y-48236190D01*
X93114904Y-48236190D01*
X94162523Y-48712380D02*
X94353000Y-48712380D01*
X94448238Y-48664761D01*
X94495857Y-48617142D01*
X94591095Y-48474285D01*
X94638714Y-48283809D01*
X94638714Y-47902857D01*
X94591095Y-47807619D01*
X94543476Y-47760000D01*
X94448238Y-47712380D01*
X94257761Y-47712380D01*
X94162523Y-47760000D01*
X94114904Y-47807619D01*
X94067285Y-47902857D01*
X94067285Y-48140952D01*
X94114904Y-48236190D01*
X94162523Y-48283809D01*
X94257761Y-48331428D01*
X94448238Y-48331428D01*
X94543476Y-48283809D01*
X94591095Y-48236190D01*
X94638714Y-48140952D01*
%TO.C,R10*%
X93337142Y-71572380D02*
X93003809Y-71096190D01*
X92765714Y-71572380D02*
X92765714Y-70572380D01*
X93146666Y-70572380D01*
X93241904Y-70620000D01*
X93289523Y-70667619D01*
X93337142Y-70762857D01*
X93337142Y-70905714D01*
X93289523Y-71000952D01*
X93241904Y-71048571D01*
X93146666Y-71096190D01*
X92765714Y-71096190D01*
X94289523Y-71572380D02*
X93718095Y-71572380D01*
X94003809Y-71572380D02*
X94003809Y-70572380D01*
X93908571Y-70715238D01*
X93813333Y-70810476D01*
X93718095Y-70858095D01*
X94908571Y-70572380D02*
X95003809Y-70572380D01*
X95099047Y-70620000D01*
X95146666Y-70667619D01*
X95194285Y-70762857D01*
X95241904Y-70953333D01*
X95241904Y-71191428D01*
X95194285Y-71381904D01*
X95146666Y-71477142D01*
X95099047Y-71524761D01*
X95003809Y-71572380D01*
X94908571Y-71572380D01*
X94813333Y-71524761D01*
X94765714Y-71477142D01*
X94718095Y-71381904D01*
X94670476Y-71191428D01*
X94670476Y-70953333D01*
X94718095Y-70762857D01*
X94765714Y-70667619D01*
X94813333Y-70620000D01*
X94908571Y-70572380D01*
%TO.C,R11*%
X93337142Y-38552380D02*
X93003809Y-38076190D01*
X92765714Y-38552380D02*
X92765714Y-37552380D01*
X93146666Y-37552380D01*
X93241904Y-37600000D01*
X93289523Y-37647619D01*
X93337142Y-37742857D01*
X93337142Y-37885714D01*
X93289523Y-37980952D01*
X93241904Y-38028571D01*
X93146666Y-38076190D01*
X92765714Y-38076190D01*
X94289523Y-38552380D02*
X93718095Y-38552380D01*
X94003809Y-38552380D02*
X94003809Y-37552380D01*
X93908571Y-37695238D01*
X93813333Y-37790476D01*
X93718095Y-37838095D01*
X95241904Y-38552380D02*
X94670476Y-38552380D01*
X94956190Y-38552380D02*
X94956190Y-37552380D01*
X94860952Y-37695238D01*
X94765714Y-37790476D01*
X94670476Y-37838095D01*
%TO.C,R12*%
X93337142Y-65984380D02*
X93003809Y-65508190D01*
X92765714Y-65984380D02*
X92765714Y-64984380D01*
X93146666Y-64984380D01*
X93241904Y-65032000D01*
X93289523Y-65079619D01*
X93337142Y-65174857D01*
X93337142Y-65317714D01*
X93289523Y-65412952D01*
X93241904Y-65460571D01*
X93146666Y-65508190D01*
X92765714Y-65508190D01*
X94289523Y-65984380D02*
X93718095Y-65984380D01*
X94003809Y-65984380D02*
X94003809Y-64984380D01*
X93908571Y-65127238D01*
X93813333Y-65222476D01*
X93718095Y-65270095D01*
X94670476Y-65079619D02*
X94718095Y-65032000D01*
X94813333Y-64984380D01*
X95051428Y-64984380D01*
X95146666Y-65032000D01*
X95194285Y-65079619D01*
X95241904Y-65174857D01*
X95241904Y-65270095D01*
X95194285Y-65412952D01*
X94622857Y-65984380D01*
X95241904Y-65984380D01*
%TO.C,R13*%
X93337142Y-33472380D02*
X93003809Y-32996190D01*
X92765714Y-33472380D02*
X92765714Y-32472380D01*
X93146666Y-32472380D01*
X93241904Y-32520000D01*
X93289523Y-32567619D01*
X93337142Y-32662857D01*
X93337142Y-32805714D01*
X93289523Y-32900952D01*
X93241904Y-32948571D01*
X93146666Y-32996190D01*
X92765714Y-32996190D01*
X94289523Y-33472380D02*
X93718095Y-33472380D01*
X94003809Y-33472380D02*
X94003809Y-32472380D01*
X93908571Y-32615238D01*
X93813333Y-32710476D01*
X93718095Y-32758095D01*
X94622857Y-32472380D02*
X95241904Y-32472380D01*
X94908571Y-32853333D01*
X95051428Y-32853333D01*
X95146666Y-32900952D01*
X95194285Y-32948571D01*
X95241904Y-33043809D01*
X95241904Y-33281904D01*
X95194285Y-33377142D01*
X95146666Y-33424761D01*
X95051428Y-33472380D01*
X94765714Y-33472380D01*
X94670476Y-33424761D01*
X94622857Y-33377142D01*
%TO.C,S1*%
X121108095Y-106604761D02*
X121250952Y-106652380D01*
X121489047Y-106652380D01*
X121584285Y-106604761D01*
X121631904Y-106557142D01*
X121679523Y-106461904D01*
X121679523Y-106366666D01*
X121631904Y-106271428D01*
X121584285Y-106223809D01*
X121489047Y-106176190D01*
X121298571Y-106128571D01*
X121203333Y-106080952D01*
X121155714Y-106033333D01*
X121108095Y-105938095D01*
X121108095Y-105842857D01*
X121155714Y-105747619D01*
X121203333Y-105700000D01*
X121298571Y-105652380D01*
X121536666Y-105652380D01*
X121679523Y-105700000D01*
X122631904Y-106652380D02*
X122060476Y-106652380D01*
X122346190Y-106652380D02*
X122346190Y-105652380D01*
X122250952Y-105795238D01*
X122155714Y-105890476D01*
X122060476Y-105938095D01*
%TO.C,U0*%
X142748095Y-103802380D02*
X142748095Y-104611904D01*
X142795714Y-104707142D01*
X142843333Y-104754761D01*
X142938571Y-104802380D01*
X143129047Y-104802380D01*
X143224285Y-104754761D01*
X143271904Y-104707142D01*
X143319523Y-104611904D01*
X143319523Y-103802380D01*
X143986190Y-103802380D02*
X144081428Y-103802380D01*
X144176666Y-103850000D01*
X144224285Y-103897619D01*
X144271904Y-103992857D01*
X144319523Y-104183333D01*
X144319523Y-104421428D01*
X144271904Y-104611904D01*
X144224285Y-104707142D01*
X144176666Y-104754761D01*
X144081428Y-104802380D01*
X143986190Y-104802380D01*
X143890952Y-104754761D01*
X143843333Y-104707142D01*
X143795714Y-104611904D01*
X143748095Y-104421428D01*
X143748095Y-104183333D01*
X143795714Y-103992857D01*
X143843333Y-103897619D01*
X143890952Y-103850000D01*
X143986190Y-103802380D01*
%TO.C,U1*%
X176530095Y-85602380D02*
X176530095Y-86411904D01*
X176577714Y-86507142D01*
X176625333Y-86554761D01*
X176720571Y-86602380D01*
X176911047Y-86602380D01*
X177006285Y-86554761D01*
X177053904Y-86507142D01*
X177101523Y-86411904D01*
X177101523Y-85602380D01*
X178101523Y-86602380D02*
X177530095Y-86602380D01*
X177815809Y-86602380D02*
X177815809Y-85602380D01*
X177720571Y-85745238D01*
X177625333Y-85840476D01*
X177530095Y-85888095D01*
%TO.C,U2*%
X177165095Y-29678380D02*
X177165095Y-30487904D01*
X177212714Y-30583142D01*
X177260333Y-30630761D01*
X177355571Y-30678380D01*
X177546047Y-30678380D01*
X177641285Y-30630761D01*
X177688904Y-30583142D01*
X177736523Y-30487904D01*
X177736523Y-29678380D01*
X178165095Y-29773619D02*
X178212714Y-29726000D01*
X178307952Y-29678380D01*
X178546047Y-29678380D01*
X178641285Y-29726000D01*
X178688904Y-29773619D01*
X178736523Y-29868857D01*
X178736523Y-29964095D01*
X178688904Y-30106952D01*
X178117476Y-30678380D01*
X178736523Y-30678380D01*
%TO.C,U3*%
X130810095Y-85602380D02*
X130810095Y-86411904D01*
X130857714Y-86507142D01*
X130905333Y-86554761D01*
X131000571Y-86602380D01*
X131191047Y-86602380D01*
X131286285Y-86554761D01*
X131333904Y-86507142D01*
X131381523Y-86411904D01*
X131381523Y-85602380D01*
X131762476Y-85602380D02*
X132381523Y-85602380D01*
X132048190Y-85983333D01*
X132191047Y-85983333D01*
X132286285Y-86030952D01*
X132333904Y-86078571D01*
X132381523Y-86173809D01*
X132381523Y-86411904D01*
X132333904Y-86507142D01*
X132286285Y-86554761D01*
X132191047Y-86602380D01*
X131905333Y-86602380D01*
X131810095Y-86554761D01*
X131762476Y-86507142D01*
%TO.C,U4*%
X130302095Y-29678380D02*
X130302095Y-30487904D01*
X130349714Y-30583142D01*
X130397333Y-30630761D01*
X130492571Y-30678380D01*
X130683047Y-30678380D01*
X130778285Y-30630761D01*
X130825904Y-30583142D01*
X130873523Y-30487904D01*
X130873523Y-29678380D01*
X131778285Y-30011714D02*
X131778285Y-30678380D01*
X131540190Y-29630761D02*
X131302095Y-30345047D01*
X131921142Y-30345047D01*
%TO.C,U5*%
X191770095Y-85602380D02*
X191770095Y-86411904D01*
X191817714Y-86507142D01*
X191865333Y-86554761D01*
X191960571Y-86602380D01*
X192151047Y-86602380D01*
X192246285Y-86554761D01*
X192293904Y-86507142D01*
X192341523Y-86411904D01*
X192341523Y-85602380D01*
X193293904Y-85602380D02*
X192817714Y-85602380D01*
X192770095Y-86078571D01*
X192817714Y-86030952D01*
X192912952Y-85983333D01*
X193151047Y-85983333D01*
X193246285Y-86030952D01*
X193293904Y-86078571D01*
X193341523Y-86173809D01*
X193341523Y-86411904D01*
X193293904Y-86507142D01*
X193246285Y-86554761D01*
X193151047Y-86602380D01*
X192912952Y-86602380D01*
X192817714Y-86554761D01*
X192770095Y-86507142D01*
%TO.C,U6*%
X193802095Y-29678380D02*
X193802095Y-30487904D01*
X193849714Y-30583142D01*
X193897333Y-30630761D01*
X193992571Y-30678380D01*
X194183047Y-30678380D01*
X194278285Y-30630761D01*
X194325904Y-30583142D01*
X194373523Y-30487904D01*
X194373523Y-29678380D01*
X195278285Y-29678380D02*
X195087809Y-29678380D01*
X194992571Y-29726000D01*
X194944952Y-29773619D01*
X194849714Y-29916476D01*
X194802095Y-30106952D01*
X194802095Y-30487904D01*
X194849714Y-30583142D01*
X194897333Y-30630761D01*
X194992571Y-30678380D01*
X195183047Y-30678380D01*
X195278285Y-30630761D01*
X195325904Y-30583142D01*
X195373523Y-30487904D01*
X195373523Y-30249809D01*
X195325904Y-30154571D01*
X195278285Y-30106952D01*
X195183047Y-30059333D01*
X194992571Y-30059333D01*
X194897333Y-30106952D01*
X194849714Y-30154571D01*
X194802095Y-30249809D01*
%TO.C,U7*%
X160782095Y-85602380D02*
X160782095Y-86411904D01*
X160829714Y-86507142D01*
X160877333Y-86554761D01*
X160972571Y-86602380D01*
X161163047Y-86602380D01*
X161258285Y-86554761D01*
X161305904Y-86507142D01*
X161353523Y-86411904D01*
X161353523Y-85602380D01*
X161734476Y-85602380D02*
X162401142Y-85602380D01*
X161972571Y-86602380D01*
%TO.C,U8*%
X160782095Y-29678380D02*
X160782095Y-30487904D01*
X160829714Y-30583142D01*
X160877333Y-30630761D01*
X160972571Y-30678380D01*
X161163047Y-30678380D01*
X161258285Y-30630761D01*
X161305904Y-30583142D01*
X161353523Y-30487904D01*
X161353523Y-29678380D01*
X161972571Y-30106952D02*
X161877333Y-30059333D01*
X161829714Y-30011714D01*
X161782095Y-29916476D01*
X161782095Y-29868857D01*
X161829714Y-29773619D01*
X161877333Y-29726000D01*
X161972571Y-29678380D01*
X162163047Y-29678380D01*
X162258285Y-29726000D01*
X162305904Y-29773619D01*
X162353523Y-29868857D01*
X162353523Y-29916476D01*
X162305904Y-30011714D01*
X162258285Y-30059333D01*
X162163047Y-30106952D01*
X161972571Y-30106952D01*
X161877333Y-30154571D01*
X161829714Y-30202190D01*
X161782095Y-30297428D01*
X161782095Y-30487904D01*
X161829714Y-30583142D01*
X161877333Y-30630761D01*
X161972571Y-30678380D01*
X162163047Y-30678380D01*
X162258285Y-30630761D01*
X162305904Y-30583142D01*
X162353523Y-30487904D01*
X162353523Y-30297428D01*
X162305904Y-30202190D01*
X162258285Y-30154571D01*
X162163047Y-30106952D01*
%TO.C,U9*%
X146050095Y-85602380D02*
X146050095Y-86411904D01*
X146097714Y-86507142D01*
X146145333Y-86554761D01*
X146240571Y-86602380D01*
X146431047Y-86602380D01*
X146526285Y-86554761D01*
X146573904Y-86507142D01*
X146621523Y-86411904D01*
X146621523Y-85602380D01*
X147145333Y-86602380D02*
X147335809Y-86602380D01*
X147431047Y-86554761D01*
X147478666Y-86507142D01*
X147573904Y-86364285D01*
X147621523Y-86173809D01*
X147621523Y-85792857D01*
X147573904Y-85697619D01*
X147526285Y-85650000D01*
X147431047Y-85602380D01*
X147240571Y-85602380D01*
X147145333Y-85650000D01*
X147097714Y-85697619D01*
X147050095Y-85792857D01*
X147050095Y-86030952D01*
X147097714Y-86126190D01*
X147145333Y-86173809D01*
X147240571Y-86221428D01*
X147431047Y-86221428D01*
X147526285Y-86173809D01*
X147573904Y-86126190D01*
X147621523Y-86030952D01*
%TO.C,U10*%
X145065904Y-29678380D02*
X145065904Y-30487904D01*
X145113523Y-30583142D01*
X145161142Y-30630761D01*
X145256380Y-30678380D01*
X145446857Y-30678380D01*
X145542095Y-30630761D01*
X145589714Y-30583142D01*
X145637333Y-30487904D01*
X145637333Y-29678380D01*
X146637333Y-30678380D02*
X146065904Y-30678380D01*
X146351619Y-30678380D02*
X146351619Y-29678380D01*
X146256380Y-29821238D01*
X146161142Y-29916476D01*
X146065904Y-29964095D01*
X147256380Y-29678380D02*
X147351619Y-29678380D01*
X147446857Y-29726000D01*
X147494476Y-29773619D01*
X147542095Y-29868857D01*
X147589714Y-30059333D01*
X147589714Y-30297428D01*
X147542095Y-30487904D01*
X147494476Y-30583142D01*
X147446857Y-30630761D01*
X147351619Y-30678380D01*
X147256380Y-30678380D01*
X147161142Y-30630761D01*
X147113523Y-30583142D01*
X147065904Y-30487904D01*
X147018285Y-30297428D01*
X147018285Y-30059333D01*
X147065904Y-29868857D01*
X147113523Y-29773619D01*
X147161142Y-29726000D01*
X147256380Y-29678380D01*
%TO.C,U11*%
X208565904Y-29678380D02*
X208565904Y-30487904D01*
X208613523Y-30583142D01*
X208661142Y-30630761D01*
X208756380Y-30678380D01*
X208946857Y-30678380D01*
X209042095Y-30630761D01*
X209089714Y-30583142D01*
X209137333Y-30487904D01*
X209137333Y-29678380D01*
X210137333Y-30678380D02*
X209565904Y-30678380D01*
X209851619Y-30678380D02*
X209851619Y-29678380D01*
X209756380Y-29821238D01*
X209661142Y-29916476D01*
X209565904Y-29964095D01*
X211089714Y-30678380D02*
X210518285Y-30678380D01*
X210804000Y-30678380D02*
X210804000Y-29678380D01*
X210708761Y-29821238D01*
X210613523Y-29916476D01*
X210518285Y-29964095D01*
%TO.C,U12*%
X206787904Y-85475380D02*
X206787904Y-86284904D01*
X206835523Y-86380142D01*
X206883142Y-86427761D01*
X206978380Y-86475380D01*
X207168857Y-86475380D01*
X207264095Y-86427761D01*
X207311714Y-86380142D01*
X207359333Y-86284904D01*
X207359333Y-85475380D01*
X208359333Y-86475380D02*
X207787904Y-86475380D01*
X208073619Y-86475380D02*
X208073619Y-85475380D01*
X207978380Y-85618238D01*
X207883142Y-85713476D01*
X207787904Y-85761095D01*
X208740285Y-85570619D02*
X208787904Y-85523000D01*
X208883142Y-85475380D01*
X209121238Y-85475380D01*
X209216476Y-85523000D01*
X209264095Y-85570619D01*
X209311714Y-85665857D01*
X209311714Y-85761095D01*
X209264095Y-85903952D01*
X208692666Y-86475380D01*
X209311714Y-86475380D01*
%TD*%
M02*
