M48
; DRILL file {KiCad 5.1.8+dfsg1-1} date Sun Nov 15 23:58:24 2020
; FORMAT={-:-/ absolute / inch / decimal}
; #@! TF.CreationDate,2020-11-15T23:58:24-05:00
; #@! TF.GenerationSoftware,Kicad,Pcbnew,5.1.8+dfsg1-1
FMAT,2
INCH
T1C0.0315
T2C0.0354
T3C0.0433
T4C0.0461
T5C0.0472
T6C0.0591
%
G90
G05
T1
X5.66Y-1.275
X5.66Y-1.375
X5.66Y-1.475
X5.66Y-1.575
X5.66Y-1.675
X5.86Y-1.275
X5.86Y-1.375
X5.86Y-1.475
X5.86Y-1.575
X5.86Y-1.675
X6.21Y-2.6
X6.21Y-2.7
X6.21Y-2.8
X6.21Y-2.9
X6.21Y-3.0
X6.21Y-3.1
X6.21Y-3.2
X6.21Y-3.3
X6.51Y-2.6
X6.51Y-2.7
X6.51Y-2.8
X6.51Y-2.9
X6.51Y-3.0
X6.51Y-3.1
X6.51Y-3.2
X6.51Y-3.3
X6.26Y-1.275
X6.26Y-1.375
X6.26Y-1.475
X6.26Y-1.575
X6.26Y-1.675
X6.46Y-1.275
X6.46Y-1.375
X6.46Y-1.475
X6.46Y-1.575
X6.46Y-1.675
X7.43Y-2.6
X7.43Y-2.7
X7.43Y-2.8
X7.43Y-2.9
X7.43Y-3.0
X7.43Y-3.1
X7.43Y-3.2
X7.43Y-3.3
X7.73Y-2.6
X7.73Y-2.7
X7.73Y-2.8
X7.73Y-2.9
X7.73Y-3.0
X7.73Y-3.1
X7.73Y-3.2
X7.73Y-3.3
X8.16Y-1.275
X8.16Y-1.375
X8.16Y-1.475
X8.16Y-1.575
X8.16Y-1.675
X8.36Y-1.275
X8.36Y-1.375
X8.36Y-1.475
X8.36Y-1.575
X8.36Y-1.675
X6.905Y-1.275
X6.905Y-1.375
X6.905Y-1.475
X6.905Y-1.575
X6.905Y-1.675
X7.105Y-1.275
X7.105Y-1.375
X7.105Y-1.475
X7.105Y-1.575
X7.105Y-1.675
X5.03Y-2.6
X5.03Y-2.7
X5.03Y-2.8
X5.03Y-2.9
X5.03Y-3.0
X5.03Y-3.1
X5.03Y-3.2
X5.03Y-3.3
X5.33Y-2.6
X5.33Y-2.7
X5.33Y-2.8
X5.33Y-2.9
X5.33Y-3.0
X5.33Y-3.1
X5.33Y-3.2
X5.33Y-3.3
X5.06Y-1.275
X5.06Y-1.375
X5.06Y-1.475
X5.06Y-1.575
X5.06Y-1.675
X5.26Y-1.275
X5.26Y-1.375
X5.26Y-1.475
X5.26Y-1.575
X5.26Y-1.675
X8.04Y-2.595
X8.04Y-2.695
X8.04Y-2.795
X8.04Y-2.895
X8.04Y-2.995
X8.04Y-3.095
X8.04Y-3.195
X8.04Y-3.295
X8.34Y-2.595
X8.34Y-2.695
X8.34Y-2.795
X8.34Y-2.895
X8.34Y-2.995
X8.34Y-3.095
X8.34Y-3.195
X8.34Y-3.295
X5.63Y-2.6
X5.63Y-2.7
X5.63Y-2.8
X5.63Y-2.9
X5.63Y-3.0
X5.63Y-3.1
X5.63Y-3.2
X5.63Y-3.3
X5.93Y-2.6
X5.93Y-2.7
X5.93Y-2.8
X5.93Y-2.9
X5.93Y-3.0
X5.93Y-3.1
X5.93Y-3.2
X5.93Y-3.3
X6.83Y-2.6
X6.83Y-2.7
X6.83Y-2.8
X6.83Y-2.9
X6.83Y-3.0
X6.83Y-3.1
X6.83Y-3.2
X6.83Y-3.3
X7.13Y-2.6
X7.13Y-2.7
X7.13Y-2.8
X7.13Y-2.9
X7.13Y-3.0
X7.13Y-3.1
X7.13Y-3.2
X7.13Y-3.3
X5.5Y-4.2
X5.5Y-4.3
X5.5Y-4.4
X5.5Y-4.5
X5.8Y-4.2
X5.8Y-4.3
X5.8Y-4.4
X5.8Y-4.5
X7.56Y-1.275
X7.56Y-1.375
X7.56Y-1.475
X7.56Y-1.575
X7.56Y-1.675
X7.76Y-1.275
X7.76Y-1.375
X7.76Y-1.475
X7.76Y-1.575
X7.76Y-1.675
T2
X4.7Y-4.3
X4.7984Y-4.3
X4.8969Y-4.3
T3
X6.2228Y-3.9
X6.2228Y-4.1559
X6.4Y-3.9
X6.4Y-4.1559
T4
X3.2Y-4.3
T5
X3.195Y-1.89
X4.195Y-1.89
X3.2Y-3.21
X4.2Y-3.21
X3.2Y-1.69
X4.2Y-1.69
X7.61Y-4.22
X8.61Y-4.22
X3.2Y-3.005
X4.2Y-3.005
X3.2Y-2.8
X4.2Y-2.8
X3.2Y-2.575
X4.2Y-2.575
X8.86Y-3.7
X8.86Y-4.7
X3.2Y-1.295
X4.2Y-1.295
X7.61Y-4.42
X8.61Y-4.42
X3.2Y-3.68
X4.2Y-3.68
X3.205Y-3.44
X4.205Y-3.44
X3.2Y-1.49
X4.2Y-1.49
X3.2Y-2.345
X4.2Y-2.345
X3.2Y-2.12
X4.2Y-2.12
T6
X3.9874Y-4.3
T0
M30
