%TF.GenerationSoftware,KiCad,Pcbnew,5.1.7+dfsg1-1*%
%TF.CreationDate,2020-11-03T09:50:27-05:00*%
%TF.ProjectId,cap_pcb,6361705f-7063-4622-9e6b-696361645f70,rev?*%
%TF.SameCoordinates,Original*%
%TF.FileFunction,Copper,L2,Bot*%
%TF.FilePolarity,Positive*%
%FSLAX46Y46*%
G04 Gerber Fmt 4.6, Leading zero omitted, Abs format (unit mm)*
G04 Created by KiCad (PCBNEW 5.1.7+dfsg1-1) date 2020-11-03 09:50:27*
%MOMM*%
%LPD*%
G01*
G04 APERTURE LIST*
%TA.AperFunction,ComponentPad*%
%ADD10C,1.800000*%
%TD*%
%TA.AperFunction,ComponentPad*%
%ADD11R,1.800000X1.800000*%
%TD*%
%TA.AperFunction,ComponentPad*%
%ADD12O,2.400000X2.400000*%
%TD*%
%TA.AperFunction,ComponentPad*%
%ADD13C,2.400000*%
%TD*%
%TA.AperFunction,ComponentPad*%
%ADD14R,2.170000X2.170000*%
%TD*%
%TA.AperFunction,ComponentPad*%
%ADD15C,2.500000*%
%TD*%
%TA.AperFunction,ComponentPad*%
%ADD16R,1.900000X1.900000*%
%TD*%
%TA.AperFunction,ComponentPad*%
%ADD17C,1.900000*%
%TD*%
%TA.AperFunction,ComponentPad*%
%ADD18R,1.600000X1.600000*%
%TD*%
%TA.AperFunction,ComponentPad*%
%ADD19O,1.600000X1.600000*%
%TD*%
%TA.AperFunction,ComponentPad*%
%ADD20C,1.600000*%
%TD*%
%TA.AperFunction,Conductor*%
%ADD21C,0.254000*%
%TD*%
G04 APERTURE END LIST*
D10*
%TO.P,SW1,1*%
%TO.N,Net-(SW1-Pad1)*%
X173736000Y-106680000D03*
D11*
X163576000Y-106680000D03*
D10*
%TO.P,SW1,2*%
%TO.N,Net-(R14-Pad1)*%
X173736000Y-99060000D03*
X163576000Y-99060000D03*
%TD*%
D12*
%TO.P,R14,2*%
%TO.N,GND*%
X225044000Y-93980000D03*
D13*
%TO.P,R14,1*%
%TO.N,Net-(R14-Pad1)*%
X225044000Y-119380000D03*
%TD*%
D14*
%TO.P,BAT1,Neg*%
%TO.N,GND*%
X81280000Y-109220000D03*
D15*
%TO.P,BAT1,Pos*%
%TO.N,Net-(BAT1-PadPos)*%
X101280000Y-109220000D03*
%TD*%
D12*
%TO.P,R0,2*%
%TO.N,Net-(R0-Pad2)*%
X193294000Y-107188000D03*
D13*
%TO.P,R0,1*%
%TO.N,VCC*%
X218694000Y-107188000D03*
%TD*%
%TO.P,R1,1*%
%TO.N,VCC*%
X218694000Y-112268000D03*
D12*
%TO.P,R1,2*%
%TO.N,Net-(R1-Pad2)*%
X193294000Y-112268000D03*
%TD*%
%TO.P,R2,2*%
%TO.N,GND*%
X81280000Y-42926000D03*
D13*
%TO.P,R2,1*%
%TO.N,Net-(R2-Pad1)*%
X106680000Y-42926000D03*
%TD*%
%TO.P,R3,1*%
%TO.N,Net-(R3-Pad1)*%
X106680000Y-76327000D03*
D12*
%TO.P,R3,2*%
%TO.N,GND*%
X81280000Y-76327000D03*
%TD*%
%TO.P,R4,2*%
%TO.N,Net-(R4-Pad2)*%
X106680000Y-93472000D03*
D13*
%TO.P,R4,1*%
%TO.N,GND*%
X81280000Y-93472000D03*
%TD*%
D12*
%TO.P,R5,2*%
%TO.N,Net-(R5-Pad2)*%
X106680000Y-59563000D03*
D13*
%TO.P,R5,1*%
%TO.N,GND*%
X81280000Y-59563000D03*
%TD*%
D12*
%TO.P,R6,2*%
%TO.N,Net-(R6-Pad2)*%
X106807000Y-87376000D03*
D13*
%TO.P,R6,1*%
%TO.N,GND*%
X81407000Y-87376000D03*
%TD*%
%TO.P,R7,1*%
%TO.N,GND*%
X81280000Y-53848000D03*
D12*
%TO.P,R7,2*%
%TO.N,Net-(R7-Pad2)*%
X106680000Y-53848000D03*
%TD*%
%TO.P,R8,2*%
%TO.N,GND*%
X81280000Y-81534000D03*
D13*
%TO.P,R8,1*%
%TO.N,Net-(R8-Pad1)*%
X106680000Y-81534000D03*
%TD*%
%TO.P,R9,1*%
%TO.N,Net-(R9-Pad1)*%
X106553000Y-48006000D03*
D12*
%TO.P,R9,2*%
%TO.N,GND*%
X81153000Y-48006000D03*
%TD*%
%TO.P,R10,2*%
%TO.N,GND*%
X81280000Y-71120000D03*
D13*
%TO.P,R10,1*%
%TO.N,Net-(R10-Pad1)*%
X106680000Y-71120000D03*
%TD*%
D12*
%TO.P,R11,2*%
%TO.N,GND*%
X81280000Y-37846000D03*
D13*
%TO.P,R11,1*%
%TO.N,Net-(R11-Pad1)*%
X106680000Y-37846000D03*
%TD*%
D12*
%TO.P,R12,2*%
%TO.N,GND*%
X81280000Y-65405000D03*
D13*
%TO.P,R12,1*%
%TO.N,Net-(R12-Pad1)*%
X106680000Y-65405000D03*
%TD*%
D12*
%TO.P,R13,2*%
%TO.N,GND*%
X81280000Y-32893000D03*
D13*
%TO.P,R13,1*%
%TO.N,Net-(R13-Pad1)*%
X106680000Y-32893000D03*
%TD*%
D16*
%TO.P,S1,1*%
%TO.N,Net-(S1-Pad1)*%
X119380000Y-109220000D03*
D17*
%TO.P,S1,2*%
%TO.N,Net-(BAT1-PadPos)*%
X121880000Y-109220000D03*
%TO.P,S1,3*%
%TO.N,VCC*%
X124380000Y-109220000D03*
%TD*%
D18*
%TO.P,U0,1*%
%TO.N,Net-(U0-Pad1)*%
X139700000Y-106680000D03*
D19*
%TO.P,U0,5*%
%TO.N,Net-(R1-Pad2)*%
X147320000Y-114300000D03*
%TO.P,U0,2*%
%TO.N,Net-(U0-Pad2)*%
X139700000Y-109220000D03*
%TO.P,U0,6*%
%TO.N,Net-(U0-Pad6)*%
X147320000Y-111760000D03*
%TO.P,U0,3*%
%TO.N,Net-(SW1-Pad1)*%
X139700000Y-111760000D03*
%TO.P,U0,7*%
%TO.N,Net-(R0-Pad2)*%
X147320000Y-109220000D03*
%TO.P,U0,4*%
%TO.N,GND*%
X139700000Y-114300000D03*
%TO.P,U0,8*%
%TO.N,VCC*%
X147320000Y-106680000D03*
%TD*%
D18*
%TO.P,U1,1*%
%TO.N,GND*%
X181102000Y-83820000D03*
D19*
%TO.P,U1,9*%
%TO.N,Net-(U1-Pad9)*%
X173482000Y-66040000D03*
%TO.P,U1,2*%
%TO.N,GND*%
X181102000Y-81280000D03*
%TO.P,U1,10*%
%TO.N,Net-(U1-Pad10)*%
X173482000Y-68580000D03*
%TO.P,U1,3*%
%TO.N,GND*%
X181102000Y-78740000D03*
%TO.P,U1,11*%
%TO.N,Net-(U1-Pad11)*%
X173482000Y-71120000D03*
%TO.P,U1,4*%
%TO.N,Net-(U1-Pad4)*%
X181102000Y-76200000D03*
%TO.P,U1,12*%
%TO.N,Net-(U1-Pad12)*%
X173482000Y-73660000D03*
%TO.P,U1,5*%
%TO.N,Net-(U1-Pad5)*%
X181102000Y-73660000D03*
%TO.P,U1,13*%
%TO.N,GND*%
X173482000Y-76200000D03*
%TO.P,U1,6*%
%TO.N,Net-(U1-Pad6)*%
X181102000Y-71120000D03*
%TO.P,U1,14*%
%TO.N,Net-(R1-Pad2)*%
X173482000Y-78740000D03*
%TO.P,U1,7*%
%TO.N,Net-(U1-Pad7)*%
X181102000Y-68580000D03*
%TO.P,U1,15*%
%TO.N,Net-(R0-Pad2)*%
X173482000Y-81280000D03*
%TO.P,U1,8*%
%TO.N,GND*%
X181102000Y-66040000D03*
%TO.P,U1,16*%
%TO.N,VCC*%
X173482000Y-83820000D03*
%TD*%
D18*
%TO.P,U2,1*%
%TO.N,Net-(R2-Pad1)*%
X175387000Y-32385000D03*
D20*
%TO.P,U2,2*%
%TO.N,Net-(U1-Pad10)*%
X175387000Y-34925000D03*
%TO.P,U2,3*%
%TO.N,Net-(U1-Pad11)*%
X175387000Y-37465000D03*
%TO.P,U2,4*%
%TO.N,Net-(U1-Pad9)*%
X175387000Y-40005000D03*
%TO.P,U2,5*%
%TO.N,Net-(U1-Pad7)*%
X175387000Y-42545000D03*
%TO.P,U2,6*%
%TO.N,Net-(R3-Pad1)*%
X180467000Y-42545000D03*
%TO.P,U2,7*%
%TO.N,Net-(U1-Pad12)*%
X180467000Y-40005000D03*
%TO.P,U2,8*%
%TO.N,Net-(U1-Pad6)*%
X180467000Y-37465000D03*
%TO.P,U2,9*%
%TO.N,Net-(U1-Pad5)*%
X180467000Y-34925000D03*
%TO.P,U2,10*%
%TO.N,Net-(U1-Pad4)*%
X180467000Y-32385000D03*
%TD*%
D18*
%TO.P,U3,1*%
%TO.N,VCC*%
X135382000Y-83820000D03*
D19*
%TO.P,U3,9*%
%TO.N,Net-(U3-Pad9)*%
X127762000Y-66040000D03*
%TO.P,U3,2*%
%TO.N,GND*%
X135382000Y-81280000D03*
%TO.P,U3,10*%
%TO.N,Net-(U3-Pad10)*%
X127762000Y-68580000D03*
%TO.P,U3,3*%
%TO.N,GND*%
X135382000Y-78740000D03*
%TO.P,U3,11*%
%TO.N,Net-(U3-Pad11)*%
X127762000Y-71120000D03*
%TO.P,U3,4*%
%TO.N,Net-(U3-Pad4)*%
X135382000Y-76200000D03*
%TO.P,U3,12*%
%TO.N,Net-(U3-Pad12)*%
X127762000Y-73660000D03*
%TO.P,U3,5*%
%TO.N,Net-(U3-Pad5)*%
X135382000Y-73660000D03*
%TO.P,U3,13*%
%TO.N,GND*%
X127762000Y-76200000D03*
%TO.P,U3,6*%
%TO.N,Net-(U3-Pad6)*%
X135382000Y-71120000D03*
%TO.P,U3,14*%
%TO.N,Net-(R1-Pad2)*%
X127762000Y-78740000D03*
%TO.P,U3,7*%
%TO.N,Net-(U3-Pad7)*%
X135382000Y-68580000D03*
%TO.P,U3,15*%
%TO.N,Net-(R0-Pad2)*%
X127762000Y-81280000D03*
%TO.P,U3,8*%
%TO.N,GND*%
X135382000Y-66040000D03*
%TO.P,U3,16*%
%TO.N,VCC*%
X127762000Y-83820000D03*
%TD*%
D18*
%TO.P,U4,1*%
%TO.N,Net-(R5-Pad2)*%
X128524000Y-32385000D03*
D20*
%TO.P,U4,2*%
%TO.N,Net-(U3-Pad10)*%
X128524000Y-34925000D03*
%TO.P,U4,3*%
%TO.N,Net-(U3-Pad11)*%
X128524000Y-37465000D03*
%TO.P,U4,4*%
%TO.N,Net-(U3-Pad9)*%
X128524000Y-40005000D03*
%TO.P,U4,5*%
%TO.N,Net-(U3-Pad7)*%
X128524000Y-42545000D03*
%TO.P,U4,6*%
%TO.N,Net-(R4-Pad2)*%
X133604000Y-42545000D03*
%TO.P,U4,7*%
%TO.N,Net-(U3-Pad12)*%
X133604000Y-40005000D03*
%TO.P,U4,8*%
%TO.N,Net-(U3-Pad6)*%
X133604000Y-37465000D03*
%TO.P,U4,9*%
%TO.N,Net-(U3-Pad5)*%
X133604000Y-34925000D03*
%TO.P,U4,10*%
%TO.N,Net-(U3-Pad4)*%
X133604000Y-32385000D03*
%TD*%
D18*
%TO.P,U5,1*%
%TO.N,GND*%
X196342000Y-83820000D03*
D19*
%TO.P,U5,9*%
%TO.N,Net-(U5-Pad9)*%
X188722000Y-66040000D03*
%TO.P,U5,2*%
%TO.N,VCC*%
X196342000Y-81280000D03*
%TO.P,U5,10*%
%TO.N,Net-(U5-Pad10)*%
X188722000Y-68580000D03*
%TO.P,U5,3*%
%TO.N,GND*%
X196342000Y-78740000D03*
%TO.P,U5,11*%
%TO.N,Net-(U5-Pad11)*%
X188722000Y-71120000D03*
%TO.P,U5,4*%
%TO.N,Net-(U5-Pad4)*%
X196342000Y-76200000D03*
%TO.P,U5,12*%
%TO.N,Net-(U5-Pad12)*%
X188722000Y-73660000D03*
%TO.P,U5,5*%
%TO.N,Net-(U5-Pad5)*%
X196342000Y-73660000D03*
%TO.P,U5,13*%
%TO.N,GND*%
X188722000Y-76200000D03*
%TO.P,U5,6*%
%TO.N,Net-(U5-Pad6)*%
X196342000Y-71120000D03*
%TO.P,U5,14*%
%TO.N,Net-(R1-Pad2)*%
X188722000Y-78740000D03*
%TO.P,U5,7*%
%TO.N,Net-(U5-Pad7)*%
X196342000Y-68580000D03*
%TO.P,U5,15*%
%TO.N,Net-(R0-Pad2)*%
X188722000Y-81280000D03*
%TO.P,U5,8*%
%TO.N,GND*%
X196342000Y-66040000D03*
%TO.P,U5,16*%
%TO.N,VCC*%
X188722000Y-83820000D03*
%TD*%
D20*
%TO.P,U6,10*%
%TO.N,Net-(U5-Pad4)*%
X197104000Y-32385000D03*
%TO.P,U6,9*%
%TO.N,Net-(U5-Pad5)*%
X197104000Y-34925000D03*
%TO.P,U6,8*%
%TO.N,Net-(U5-Pad6)*%
X197104000Y-37465000D03*
%TO.P,U6,7*%
%TO.N,Net-(U5-Pad12)*%
X197104000Y-40005000D03*
%TO.P,U6,6*%
%TO.N,Net-(R10-Pad1)*%
X197104000Y-42545000D03*
%TO.P,U6,5*%
%TO.N,Net-(U5-Pad7)*%
X192024000Y-42545000D03*
%TO.P,U6,4*%
%TO.N,Net-(U5-Pad9)*%
X192024000Y-40005000D03*
%TO.P,U6,3*%
%TO.N,Net-(U5-Pad11)*%
X192024000Y-37465000D03*
%TO.P,U6,2*%
%TO.N,Net-(U5-Pad10)*%
X192024000Y-34925000D03*
D18*
%TO.P,U6,1*%
%TO.N,Net-(R11-Pad1)*%
X192024000Y-32385000D03*
%TD*%
D19*
%TO.P,U7,16*%
%TO.N,VCC*%
X157734000Y-83820000D03*
%TO.P,U7,8*%
%TO.N,GND*%
X165354000Y-66040000D03*
%TO.P,U7,15*%
%TO.N,Net-(R0-Pad2)*%
X157734000Y-81280000D03*
%TO.P,U7,7*%
%TO.N,Net-(U7-Pad7)*%
X165354000Y-68580000D03*
%TO.P,U7,14*%
%TO.N,Net-(R1-Pad2)*%
X157734000Y-78740000D03*
%TO.P,U7,6*%
%TO.N,Net-(U7-Pad6)*%
X165354000Y-71120000D03*
%TO.P,U7,13*%
%TO.N,GND*%
X157734000Y-76200000D03*
%TO.P,U7,5*%
%TO.N,Net-(U7-Pad5)*%
X165354000Y-73660000D03*
%TO.P,U7,12*%
%TO.N,Net-(U7-Pad12)*%
X157734000Y-73660000D03*
%TO.P,U7,4*%
%TO.N,Net-(U7-Pad4)*%
X165354000Y-76200000D03*
%TO.P,U7,11*%
%TO.N,Net-(U7-Pad11)*%
X157734000Y-71120000D03*
%TO.P,U7,3*%
%TO.N,GND*%
X165354000Y-78740000D03*
%TO.P,U7,10*%
%TO.N,Net-(U7-Pad10)*%
X157734000Y-68580000D03*
%TO.P,U7,2*%
%TO.N,VCC*%
X165354000Y-81280000D03*
%TO.P,U7,9*%
%TO.N,Net-(U7-Pad9)*%
X157734000Y-66040000D03*
D18*
%TO.P,U7,1*%
%TO.N,VCC*%
X165354000Y-83820000D03*
%TD*%
D20*
%TO.P,U8,10*%
%TO.N,Net-(U7-Pad4)*%
X164084000Y-32385000D03*
%TO.P,U8,9*%
%TO.N,Net-(U7-Pad5)*%
X164084000Y-34925000D03*
%TO.P,U8,8*%
%TO.N,Net-(U7-Pad6)*%
X164084000Y-37465000D03*
%TO.P,U8,7*%
%TO.N,Net-(U7-Pad12)*%
X164084000Y-40005000D03*
%TO.P,U8,6*%
%TO.N,Net-(R8-Pad1)*%
X164084000Y-42545000D03*
%TO.P,U8,5*%
%TO.N,Net-(U7-Pad7)*%
X159004000Y-42545000D03*
%TO.P,U8,4*%
%TO.N,Net-(U7-Pad9)*%
X159004000Y-40005000D03*
%TO.P,U8,3*%
%TO.N,Net-(U7-Pad11)*%
X159004000Y-37465000D03*
%TO.P,U8,2*%
%TO.N,Net-(U7-Pad10)*%
X159004000Y-34925000D03*
D18*
%TO.P,U8,1*%
%TO.N,Net-(R9-Pad1)*%
X159004000Y-32385000D03*
%TD*%
D19*
%TO.P,U9,16*%
%TO.N,VCC*%
X143002000Y-83820000D03*
%TO.P,U9,8*%
%TO.N,GND*%
X150622000Y-66040000D03*
%TO.P,U9,15*%
%TO.N,Net-(R0-Pad2)*%
X143002000Y-81280000D03*
%TO.P,U9,7*%
%TO.N,Net-(U10-Pad5)*%
X150622000Y-68580000D03*
%TO.P,U9,14*%
%TO.N,Net-(R1-Pad2)*%
X143002000Y-78740000D03*
%TO.P,U9,6*%
%TO.N,Net-(U10-Pad8)*%
X150622000Y-71120000D03*
%TO.P,U9,13*%
%TO.N,GND*%
X143002000Y-76200000D03*
%TO.P,U9,5*%
%TO.N,Net-(U10-Pad9)*%
X150622000Y-73660000D03*
%TO.P,U9,12*%
%TO.N,Net-(U10-Pad7)*%
X143002000Y-73660000D03*
%TO.P,U9,4*%
%TO.N,Net-(U10-Pad10)*%
X150622000Y-76200000D03*
%TO.P,U9,11*%
%TO.N,Net-(U10-Pad3)*%
X143002000Y-71120000D03*
%TO.P,U9,3*%
%TO.N,VCC*%
X150622000Y-78740000D03*
%TO.P,U9,10*%
%TO.N,Net-(U10-Pad2)*%
X143002000Y-68580000D03*
%TO.P,U9,2*%
%TO.N,GND*%
X150622000Y-81280000D03*
%TO.P,U9,9*%
%TO.N,Net-(U10-Pad4)*%
X143002000Y-66040000D03*
D18*
%TO.P,U9,1*%
%TO.N,GND*%
X150622000Y-83820000D03*
%TD*%
D20*
%TO.P,U10,10*%
%TO.N,Net-(U10-Pad10)*%
X148844000Y-32385000D03*
%TO.P,U10,9*%
%TO.N,Net-(U10-Pad9)*%
X148844000Y-34925000D03*
%TO.P,U10,8*%
%TO.N,Net-(U10-Pad8)*%
X148844000Y-37465000D03*
%TO.P,U10,7*%
%TO.N,Net-(U10-Pad7)*%
X148844000Y-40005000D03*
%TO.P,U10,6*%
%TO.N,Net-(R6-Pad2)*%
X148844000Y-42545000D03*
%TO.P,U10,5*%
%TO.N,Net-(U10-Pad5)*%
X143764000Y-42545000D03*
%TO.P,U10,4*%
%TO.N,Net-(U10-Pad4)*%
X143764000Y-40005000D03*
%TO.P,U10,3*%
%TO.N,Net-(U10-Pad3)*%
X143764000Y-37465000D03*
%TO.P,U10,2*%
%TO.N,Net-(U10-Pad2)*%
X143764000Y-34925000D03*
D18*
%TO.P,U10,1*%
%TO.N,Net-(R7-Pad2)*%
X143764000Y-32385000D03*
%TD*%
%TO.P,U11,1*%
%TO.N,Net-(R13-Pad1)*%
X207264000Y-32385000D03*
D20*
%TO.P,U11,2*%
%TO.N,Net-(U11-Pad2)*%
X207264000Y-34925000D03*
%TO.P,U11,3*%
%TO.N,Net-(U11-Pad3)*%
X207264000Y-37465000D03*
%TO.P,U11,4*%
%TO.N,Net-(U11-Pad4)*%
X207264000Y-40005000D03*
%TO.P,U11,5*%
%TO.N,Net-(U11-Pad5)*%
X207264000Y-42545000D03*
%TO.P,U11,6*%
%TO.N,Net-(R12-Pad1)*%
X212344000Y-42545000D03*
%TO.P,U11,7*%
%TO.N,Net-(U11-Pad7)*%
X212344000Y-40005000D03*
%TO.P,U11,8*%
%TO.N,Net-(U11-Pad8)*%
X212344000Y-37465000D03*
%TO.P,U11,9*%
%TO.N,Net-(U11-Pad9)*%
X212344000Y-34925000D03*
%TO.P,U11,10*%
%TO.N,Net-(U11-Pad10)*%
X212344000Y-32385000D03*
%TD*%
D19*
%TO.P,U12,16*%
%TO.N,VCC*%
X204216000Y-83693000D03*
%TO.P,U12,8*%
%TO.N,GND*%
X211836000Y-65913000D03*
%TO.P,U12,15*%
%TO.N,Net-(R0-Pad2)*%
X204216000Y-81153000D03*
%TO.P,U12,7*%
%TO.N,Net-(U11-Pad5)*%
X211836000Y-68453000D03*
%TO.P,U12,14*%
%TO.N,Net-(R1-Pad2)*%
X204216000Y-78613000D03*
%TO.P,U12,6*%
%TO.N,Net-(U11-Pad8)*%
X211836000Y-70993000D03*
%TO.P,U12,13*%
%TO.N,GND*%
X204216000Y-76073000D03*
%TO.P,U12,5*%
%TO.N,Net-(U11-Pad9)*%
X211836000Y-73533000D03*
%TO.P,U12,12*%
%TO.N,Net-(U11-Pad7)*%
X204216000Y-73533000D03*
%TO.P,U12,4*%
%TO.N,Net-(U11-Pad10)*%
X211836000Y-76073000D03*
%TO.P,U12,11*%
%TO.N,Net-(U11-Pad3)*%
X204216000Y-70993000D03*
%TO.P,U12,3*%
%TO.N,VCC*%
X211836000Y-78613000D03*
%TO.P,U12,10*%
%TO.N,Net-(U11-Pad2)*%
X204216000Y-68453000D03*
%TO.P,U12,2*%
%TO.N,GND*%
X211836000Y-81153000D03*
%TO.P,U12,9*%
%TO.N,Net-(U11-Pad4)*%
X204216000Y-65913000D03*
D18*
%TO.P,U12,1*%
%TO.N,VCC*%
X211836000Y-83693000D03*
%TD*%
D21*
%TO.N,Net-(R0-Pad2)*%
X193294000Y-107188000D02*
X193294000Y-100838000D01*
X193294000Y-100838000D02*
X197866000Y-96266000D01*
X197866000Y-96266000D02*
X197866000Y-88773000D01*
X197866000Y-88773000D02*
X196723000Y-87630000D01*
X126238000Y-87630000D02*
X124460000Y-85852000D01*
X124460000Y-84582000D02*
X127762000Y-81280000D01*
X124460000Y-85852000D02*
X124460000Y-84582000D01*
X140081000Y-84201000D02*
X143002000Y-81280000D01*
X140081000Y-87630000D02*
X140081000Y-84201000D01*
X140081000Y-87630000D02*
X126238000Y-87630000D01*
X154813000Y-84201000D02*
X157734000Y-81280000D01*
X154813000Y-87630000D02*
X154813000Y-84201000D01*
X154813000Y-87630000D02*
X140081000Y-87630000D01*
X169926000Y-87630000D02*
X169926000Y-84836000D01*
X169926000Y-84836000D02*
X173482000Y-81280000D01*
X169926000Y-87630000D02*
X154813000Y-87630000D01*
X184912000Y-85090000D02*
X188722000Y-81280000D01*
X184912000Y-87630000D02*
X184912000Y-85090000D01*
X196723000Y-87630000D02*
X184912000Y-87630000D01*
X184912000Y-87630000D02*
X169926000Y-87630000D01*
X187452000Y-113030000D02*
X191712999Y-108769001D01*
X187452000Y-116078000D02*
X187452000Y-113030000D01*
X190500000Y-119126000D02*
X187452000Y-116078000D01*
X207645000Y-116459000D02*
X204978000Y-119126000D01*
X207645000Y-84582000D02*
X207645000Y-116459000D01*
X191712999Y-108769001D02*
X193294000Y-107188000D01*
X204978000Y-119126000D02*
X190500000Y-119126000D01*
X204216000Y-81153000D02*
X207645000Y-84582000D01*
%TO.N,Net-(R1-Pad2)*%
X141820999Y-77558999D02*
X143002000Y-78740000D01*
X128943001Y-77558999D02*
X141820999Y-77558999D01*
X127762000Y-78740000D02*
X128943001Y-77558999D01*
X156552999Y-77558999D02*
X157734000Y-78740000D01*
X144183001Y-77558999D02*
X156552999Y-77558999D01*
X143002000Y-78740000D02*
X144183001Y-77558999D01*
X172123001Y-77381001D02*
X173482000Y-78740000D01*
X159092999Y-77381001D02*
X172123001Y-77381001D01*
X157734000Y-78740000D02*
X159092999Y-77381001D01*
X187363001Y-77381001D02*
X188722000Y-78740000D01*
X174840999Y-77381001D02*
X187363001Y-77381001D01*
X173482000Y-78740000D02*
X174840999Y-77381001D01*
X189903001Y-77558999D02*
X203161999Y-77558999D01*
X203161999Y-77558999D02*
X204216000Y-78613000D01*
X188722000Y-78740000D02*
X189903001Y-77558999D01*
X203034999Y-102527001D02*
X193294000Y-112268000D01*
X203034999Y-79794001D02*
X203034999Y-102527001D01*
X204216000Y-78613000D02*
X203034999Y-79794001D01*
%TO.N,Net-(R3-Pad1)*%
X106807000Y-76327000D02*
X114935000Y-68199000D01*
X114935000Y-68199000D02*
X114935000Y-27686000D01*
X114935000Y-27686000D02*
X116332000Y-26289000D01*
X116332000Y-26289000D02*
X184023000Y-26289000D01*
X184023000Y-26289000D02*
X186690000Y-28956000D01*
X186690000Y-28956000D02*
X186690000Y-41656000D01*
X185801000Y-42545000D02*
X181864000Y-42545000D01*
X186690000Y-41656000D02*
X185801000Y-42545000D01*
X181864000Y-42545000D02*
X180467000Y-42545000D01*
%TO.N,Net-(R4-Pad2)*%
X106680000Y-93472000D02*
X120142000Y-80010000D01*
X120142000Y-33909000D02*
X123444000Y-30607000D01*
X120142000Y-80010000D02*
X120142000Y-33909000D01*
X123444000Y-30607000D02*
X136906000Y-30607000D01*
X136906000Y-30607000D02*
X138049000Y-31750000D01*
X138049000Y-31750000D02*
X138049000Y-41402000D01*
X136906000Y-42545000D02*
X133604000Y-42545000D01*
X138049000Y-41402000D02*
X136906000Y-42545000D01*
%TO.N,Net-(R6-Pad2)*%
X106807000Y-87376000D02*
X117983000Y-76200000D01*
X117983000Y-76200000D02*
X117983000Y-32512000D01*
X117983000Y-32512000D02*
X121285000Y-29210000D01*
X121285000Y-29210000D02*
X150114000Y-29210000D01*
X150114000Y-29210000D02*
X153289000Y-32385000D01*
X153289000Y-32385000D02*
X153289000Y-41783000D01*
X152527000Y-42545000D02*
X148844000Y-42545000D01*
X153289000Y-41783000D02*
X152527000Y-42545000D01*
%TO.N,Net-(R8-Pad1)*%
X106680000Y-81534000D02*
X116459000Y-71755000D01*
X116459000Y-71755000D02*
X116459000Y-30480000D01*
X116459000Y-30480000D02*
X119126000Y-27813000D01*
X119126000Y-27813000D02*
X165608000Y-27813000D01*
X165608000Y-27813000D02*
X169545000Y-31750000D01*
X169545000Y-31750000D02*
X169545000Y-41021000D01*
X168021000Y-42545000D02*
X164084000Y-42545000D01*
X169545000Y-41021000D02*
X168021000Y-42545000D01*
%TO.N,Net-(R10-Pad1)*%
X106680000Y-71120000D02*
X112395000Y-65405000D01*
X112395000Y-65405000D02*
X112395000Y-27178000D01*
X112395000Y-27178000D02*
X114427000Y-25146000D01*
X114427000Y-25146000D02*
X197866000Y-25146000D01*
X197866000Y-25146000D02*
X202438000Y-29718000D01*
X202438000Y-29718000D02*
X202438000Y-41275000D01*
X201168000Y-42545000D02*
X197104000Y-42545000D01*
X202438000Y-41275000D02*
X201168000Y-42545000D01*
%TO.N,Net-(R12-Pad1)*%
X106680000Y-65405000D02*
X106680000Y-63373000D01*
X106680000Y-63373000D02*
X109982000Y-60071000D01*
X109982000Y-60071000D02*
X109982000Y-27432000D01*
X109982000Y-27432000D02*
X110426500Y-26987500D01*
X110426500Y-26987500D02*
X110617000Y-26797000D01*
X218313000Y-41148000D02*
X216916000Y-42545000D01*
X218313000Y-28194000D02*
X218313000Y-41148000D01*
X213233000Y-23114000D02*
X218313000Y-28194000D01*
X114300000Y-23114000D02*
X213233000Y-23114000D01*
X216916000Y-42545000D02*
X212344000Y-42545000D01*
X110426500Y-26987500D02*
X114300000Y-23114000D01*
%TO.N,Net-(U1-Pad12)*%
X173482000Y-73660000D02*
X176149000Y-73660000D01*
X176149000Y-73660000D02*
X178181000Y-71628000D01*
X178181000Y-42291000D02*
X180467000Y-40005000D01*
X178181000Y-71628000D02*
X178181000Y-42291000D01*
%TO.N,Net-(U1-Pad11)*%
X173482000Y-71120000D02*
X175387000Y-71120000D01*
X175387000Y-71120000D02*
X177546000Y-68961000D01*
X177546000Y-39624000D02*
X175387000Y-37465000D01*
X177546000Y-68961000D02*
X177546000Y-39624000D01*
%TO.N,Net-(U5-Pad12)*%
X188722000Y-73660000D02*
X191643000Y-73660000D01*
X191643000Y-73660000D02*
X192405000Y-72898000D01*
X192405000Y-72898000D02*
X192405000Y-55499000D01*
X192405000Y-55499000D02*
X194818000Y-53086000D01*
X194818000Y-42291000D02*
X197104000Y-40005000D01*
X194818000Y-53086000D02*
X194818000Y-42291000D01*
%TO.N,Net-(U5-Pad11)*%
X188722000Y-71120000D02*
X190881000Y-71120000D01*
X190881000Y-71120000D02*
X191897000Y-70104000D01*
X191897000Y-70104000D02*
X191897000Y-54864000D01*
X191897000Y-54864000D02*
X194183000Y-52578000D01*
X194183000Y-39624000D02*
X192024000Y-37465000D01*
X194183000Y-52578000D02*
X194183000Y-39624000D01*
%TO.N,Net-(U7-Pad11)*%
X157734000Y-71120000D02*
X159639000Y-71120000D01*
X159639000Y-71120000D02*
X160909000Y-69850000D01*
X160909000Y-39370000D02*
X159004000Y-37465000D01*
X160909000Y-69850000D02*
X160909000Y-39370000D01*
%TO.N,Net-(U7-Pad12)*%
X157734000Y-73660000D02*
X159512000Y-73660000D01*
X159512000Y-73660000D02*
X161925000Y-71247000D01*
X161925000Y-42164000D02*
X164084000Y-40005000D01*
X161925000Y-71247000D02*
X161925000Y-42164000D01*
%TO.N,Net-(U10-Pad3)*%
X144945001Y-38646001D02*
X143764000Y-37465000D01*
X144945001Y-51269999D02*
X144945001Y-38646001D01*
X144183001Y-52031999D02*
X144945001Y-51269999D01*
X144183001Y-69938999D02*
X144183001Y-52031999D01*
X143002000Y-71120000D02*
X144183001Y-69938999D01*
%TO.N,Net-(U10-Pad7)*%
X147662999Y-41186001D02*
X148844000Y-40005000D01*
X147320000Y-41529000D02*
X147662999Y-41186001D01*
X147320000Y-52197000D02*
X147320000Y-41529000D01*
X146939000Y-53340000D02*
X147320000Y-52959000D01*
X145161000Y-53340000D02*
X146939000Y-53340000D01*
X147320000Y-52959000D02*
X147320000Y-52197000D01*
X145161000Y-71501000D02*
X145161000Y-53340000D01*
X143002000Y-73660000D02*
X145161000Y-71501000D01*
%TO.N,Net-(U11-Pad3)*%
X204216000Y-70993000D02*
X206375000Y-68834000D01*
X206375000Y-68834000D02*
X206375000Y-53975000D01*
X206375000Y-53975000D02*
X208661000Y-51689000D01*
X209169000Y-39370000D02*
X207264000Y-37465000D01*
X208661000Y-51689000D02*
X209169000Y-51181000D01*
X209169000Y-51181000D02*
X209169000Y-39370000D01*
%TO.N,Net-(U11-Pad7)*%
X204216000Y-73533000D02*
X206756000Y-73533000D01*
X206756000Y-73533000D02*
X209931000Y-70358000D01*
X209931000Y-42418000D02*
X212344000Y-40005000D01*
X209931000Y-70358000D02*
X209931000Y-42418000D01*
%TO.N,Net-(R14-Pad1)*%
X173736000Y-99060000D02*
X163576000Y-99060000D01*
X219964000Y-124460000D02*
X225044000Y-119380000D01*
X189484000Y-124460000D02*
X219964000Y-124460000D01*
X183896000Y-118872000D02*
X189484000Y-124460000D01*
X183896000Y-109220000D02*
X183896000Y-118872000D01*
X173736000Y-99060000D02*
X183896000Y-109220000D01*
%TO.N,Net-(SW1-Pad1)*%
X137160000Y-111760000D02*
X139700000Y-111760000D01*
X133604000Y-117348000D02*
X133604000Y-115316000D01*
X133604000Y-115316000D02*
X137160000Y-111760000D01*
X137668000Y-121412000D02*
X133604000Y-117348000D01*
X152908000Y-121412000D02*
X137668000Y-121412000D01*
X163576000Y-110744000D02*
X152908000Y-121412000D01*
X163576000Y-106680000D02*
X163576000Y-110744000D01*
X163576000Y-106680000D02*
X173736000Y-106680000D01*
%TD*%
M02*
